<?xml version="1.0" encoding="utf-8"?>
<!-- Generator: Adobe Illustrator 14.0.0, SVG Export Plug-In . SVG Version: 6.00 Build 43363)  -->
<!DOCTYPE svg PUBLIC "-//W3C//DTD SVG 1.1//EN" "http://www.w3.org/Graphics/SVG/1.1/DTD/svg11.dtd" [
	<!ENTITY ns_flows "http://ns.adobe.com/Flows/1.0/">
	<!ENTITY ns_extend "http://ns.adobe.com/Extensibility/1.0/">
	<!ENTITY ns_ai "http://ns.adobe.com/AdobeIllustrator/10.0/">
	<!ENTITY ns_graphs "http://ns.adobe.com/Graphs/1.0/">
	<!ENTITY ns_vars "http://ns.adobe.com/Variables/1.0/">
	<!ENTITY ns_imrep "http://ns.adobe.com/ImageReplacement/1.0/">
	<!ENTITY ns_sfw "http://ns.adobe.com/SaveForWeb/1.0/">
	<!ENTITY ns_custom "http://ns.adobe.com/GenericCustomNamespace/1.0/">
	<!ENTITY ns_adobe_xpath "http://ns.adobe.com/XPath/1.0/">
]>
<svg version="1.1"
	 xmlns:x="&ns_extend;" xmlns:i="&ns_ai;" xmlns:graph="&ns_graphs;" i:viewOrigin="0 595.2803" i:rulerOrigin="0 0" i:pageBounds="0 595.2803 841.8896 0"
	 xmlns="http://www.w3.org/2000/svg" xmlns:xlink="http://www.w3.org/1999/xlink" xmlns:a="http://ns.adobe.com/AdobeSVGViewerExtensions/3.0/"
	 x="0px" y="0px" width="841.89px" height="595.28px" viewBox="0 0 841.89 595.28" enable-background="new 0 0 841.89 595.28"
	 xml:space="preserve">
<metadata>
	<variableSets  xmlns="http://ns.adobe.com/Variables/1.0/">
		<variableSet  varSetName="binding1" locked="none">
			<variables></variables>
			<v:sampleDataSets  xmlns:v="http://ns.adobe.com/Variables/1.0/" xmlns="http://ns.adobe.com/GenericCustomNamespace/1.0/">
				</v:sampleDataSets>
		</variableSet>
	</variableSets>
</metadata>
<g id="Calque_1" i:knockout="Off" i:layer="yes" i:dimmedPercent="50" i:rgbTrio="#4F008000FFFF">
	<line i:knockout="Off" fill="none" stroke="#1A171B" stroke-width="3.1274" x1="170.814" y1="377.01" x2="656.164" y2="377.01"/>
	<line i:knockout="Off" fill="none" stroke="#1A171B" stroke-width="3.1274" x1="170.814" y1="500.805" x2="656.164" y2="500.805"/>
	<g i:knockout="Off">
		<path i:knockout="Off" d="M213.386,466.634v5.64h-16.034c-10.616,0-21.011-4.312-21.011-16.587c0-20.236,0-40.583,0-60.819h5.64
			v60.819c0,8.293,8.625,10.947,15.371,10.947H213.386z"/>
		<path i:knockout="Off" d="M233.839,457.234c0,1.77,0.332,3.207,1.327,4.645c1.88,2.543,5.308,4.312,9.178,4.977
			c2.986,0.553,5.75,0.553,8.736,0c4.091-0.554,7.851-2.212,10.284-5.64l4.755,2.875c-3.207,5.197-8.625,7.408-14.265,8.293
			c-3.317,0.553-6.303,0.664-9.621,0.11c-5.639-0.884-10.726-3.428-13.601-7.298c-1.77-2.543-2.433-5.308-2.433-8.404v-24.549
			c0-7.298,5.529-11.832,12.717-13.822c5.197-1.438,10.837-1.438,16.034,0c14.375,4.312,16.809,23.443,3.428,30.521
			c-7.741,4.201-19.13,2.653-26.54,2.653V457.234z M233.839,446.729c4.755-0.222,16.477,0.995,23.886-2.544
			c9.399-4.423,7.63-17.692-2.212-20.457c-4.202-1.105-8.957-1.105-13.159,0c-4.755,1.327-8.515,4.202-8.515,8.515V446.729z"/>
		<path i:knockout="Off" d="M320.861,432.686c0-1.658-0.332-3.207-1.327-4.533c-1.88-2.654-5.308-4.312-9.289-5.088
			c-2.985-0.553-5.64-0.441-8.736,0c-3.981,0.664-7.851,2.322-10.173,5.751l-4.755-2.985c6.524-10.506,30.188-11.059,37.487-0.996
			c1.769,2.544,2.322,5.309,2.322,8.294v29.083c0,4.091,2.654,5.197,5.418,5.197v4.976c-4.645,0.332-8.294-0.995-9.953-4.423
			c-4.755,4.645-10.726,5.75-16.145,5.75c-2.654,0-5.418-0.442-8.072-1.105c-15.039-4.092-16.808-22.227-5.529-29.636
			c6.856-4.645,17.804-5.308,28.751-3.207V432.686z M320.861,444.85c-8.183-2.102-18.909-2.322-25.212,2.101
			c-7.74,5.419-7.077,17.361,3.539,20.347c1.991,0.554,4.202,0.774,6.524,0.774c5.75,0,15.149-2.212,15.149-9.289V444.85z"/>
		<path i:knockout="Off" d="M348.612,472.273v-24.659v-14.155v-15.48h5.418v5.971c4.755-6.744,15.26-7.961,23.001-5.971
			l-0.885,5.197c-7.298-2.433-21.895,1.327-21.895,10.174v38.924H348.612z"/>
		<path i:knockout="Off" d="M428.446,472.273v-39.588c0-6.523-7.52-10.062-15.039-10.062s-15.149,3.428-15.149,10.947v38.703h-5.64
			v-54.406h5.64v5.088c4.091-4.424,9.842-5.75,15.039-5.75c10.284-0.111,20.789,4.754,20.789,15.592v39.477H428.446z"/>
		<path i:knockout="Off" d="M454.097,408.91c0-19.793,46.775-19.683,46.775,0v48.988c0,2.875-0.774,5.197-2.101,7.188l6.745,7.74
			h-7.52l-3.317-3.87c-10.837,7.077-40.583,5.64-40.583-11.058V408.91z M483.4,457.234l7.409-0.11l3.98,3.87
			c0.442-1.105,0.553-2.322,0.553-3.538V408.91c0-13.048-35.606-12.826-35.606,0v48.546c0,1.326,0.221,2.322,0.332,2.764
			c3.096,8.847,23.885,8.404,30.631,4.645L483.4,457.234z"/>
		<path i:knockout="Off" d="M526.41,418.089v39.256c0,6.635,7.63,10.174,15.149,10.174s15.149-3.539,15.149-10.947v-38.482h5.529
			v54.185h-5.529v-5.197c-4.091,4.534-9.841,5.75-15.038,5.86c-10.284,0-20.79-4.755-20.79-15.592v-39.256H526.41z"/>
		<path i:knockout="Off" d="M584.018,394.646h6.303v9.842h-6.303V394.646z M584.35,417.979h5.64v54.295h-5.64V417.979z"/>
		<path i:knockout="Off" d="M610.666,418.089h29.967c9.289,0.11,13.602,9.62,6.303,15.702l-30.188,26.65
			c-3.206,2.985-1.438,6.303,2.876,6.303h30.962v5.529h-31.184c-9.289-0.11-13.602-9.51-6.414-15.702l30.188-26.65
			c3.317-2.985,1.438-6.303-2.764-6.303h-29.746V418.089z"/>
	</g>
	<g i:knockout="Off">
		<path fill="#FFFFFF" d="M505.966,124.957c11.906-8.089,17.482-23.411,17.482-47.765h-4.873c0,15.175-23.486,26.514-44.48,26.514
			c-11.877,0-40.646,1.808-57.739,18.12c-17.092-16.312-45.862-18.12-57.739-18.12c-20.994,0-44.481-11.339-44.481-26.514h-4.873
			c0,24.354,5.577,39.676,17.482,47.765c-20.746,15.056-33.014,39.066-33.014,64.99c0,18.91,6.543,36.278,17.416,49.982v36.769
			c0,58.022,47.194,105.218,105.208,105.218c58.019,0,105.216-47.193,105.216-105.218v-36.769
			c10.873-13.704,17.416-31.072,17.416-49.982C538.989,164.023,526.718,140.013,505.966,124.957z M316.021,276.698v-31.182
			c12.134,12.705,28.379,21.308,46.533,23.708c1.651,4.281,3.036,8.688,4.097,13.214c6.224,26.6,1.399,52.941-11.116,73.884
			C331.571,337.967,316.021,309.15,316.021,276.698z M360.616,360.075c13.562-22.374,18.782-50.606,12.125-79.066
			c-0.895-3.819-2.018-7.556-3.321-11.215c1.123,0.047,2.217,0.176,3.35,0.176c15.584,0,30.616-4.597,43.587-13.31
			c12.971,8.713,28.007,13.31,43.585,13.31c1.139,0,2.238-0.129,3.359-0.176c-1.303,3.659-2.422,7.396-3.316,11.215
			c-6.656,28.46-1.436,56.692,12.121,79.066c-15.955,10.706-35.131,16.968-55.75,16.968
			C395.743,377.043,376.571,370.781,360.616,360.075z M516.702,276.698c0,32.447-15.551,61.265-39.514,79.617
			c-12.516-20.941-17.336-47.284-11.111-73.879c1.062-4.525,2.441-8.938,4.098-13.214c18.148-2.403,34.395-11.003,46.527-23.708
			V276.698z M516.702,238.236c-13.613,16.397-33.994,26.861-56.76,26.861c-15.135,0-29.721-4.625-42.183-13.386l-1.404-0.98
			l-1.399,0.98c-12.458,8.761-27.047,13.386-42.188,13.386c-22.754,0-43.135-10.463-56.749-26.861
			c-1.737-2.094-3.369-4.264-4.873-6.538c-7.918-11.949-12.543-26.309-12.543-41.75c0-25.567,12.7-49.154,33.975-63.097l3.474-2.274
			l-3.683-1.922c-9.969-5.196-15.57-15.051-17.482-31.244c8.917,10.554,27.009,17.168,43.729,17.168
			c9.098,0,40.023,1.323,55.959,18.377l1.78,1.903l1.78-1.903c15.936-17.054,46.859-18.377,55.959-18.377
			c16.721,0,34.812-6.614,43.729-17.168c-1.912,16.193-7.514,26.048-17.48,31.244l-3.684,1.922l3.473,2.274
			c21.279,13.942,33.984,37.53,33.984,63.097c0,15.441-4.625,29.802-12.543,41.75C520.071,233.972,518.438,236.142,516.702,238.236z
			"/>
		<g i:knockout="Off">
			<g i:knockout="Off">
				<path fill="#1B171B" d="M509.46,53.438H323.263c-2.018,0-3.654,1.637-3.654,3.655s1.637,3.654,3.654,3.654h8.836v14.456
					l-7.609,15.198h15.879h4.211l-7.609-15.246V60.747h22.641V81.66c0,9.802,13.78,16.631,26.152,16.631
					c4.82,0,21.213,0.704,29.659,9.735c0.243,0.262,0.585,0.409,0.942,0.409s0.7-0.147,0.942-0.409
					c8.446-9.031,24.835-9.735,29.654-9.735c12.372,0,26.151-6.829,26.151-16.631V60.747h36.346c2.018,0,3.654-1.637,3.654-3.654
					S511.478,53.438,509.46,53.438z"/>
			</g>
			<g i:knockout="Off">
				<path fill="#030303" d="M416.361,250.726l1.404,0.985c12.458,8.76,27.042,13.391,42.183,13.391
					c40.898,0,74.178-33.713,74.178-75.154c0-25.562-12.703-49.149-33.986-63.097l-3.48-2.274l3.689-1.922
					c9.969-5.196,15.562-15.046,17.477-31.244c-8.916,10.554-27.008,17.168-43.729,17.168c-9.1,0-40.02,1.323-55.955,18.377
					l-1.78,1.903l-1.779-1.903c-15.936-17.054-46.861-18.377-55.959-18.377c-16.726,0-34.812-6.614-43.73-17.168
					c1.908,16.193,7.514,26.048,17.478,31.244l3.688,1.922l-3.479,2.274c-21.27,13.942-33.975,37.53-33.975,63.097
					c0,41.441,33.271,75.154,74.169,75.154c15.142,0,29.726-4.631,42.184-13.391L416.361,250.726L416.361,250.726z"/>
			</g>
			<path fill="#FFFFFF" d="M503.739,177.785c0,18.51-15.008,33.518-33.518,33.518c-18.512,0-33.514-15.008-33.514-33.518
				c0-18.511,15.002-33.509,33.514-33.509C488.731,144.276,503.739,159.274,503.739,177.785z"/>
			<path d="M490.712,177.785c0,11.315-9.176,20.489-20.494,20.489c-11.307,0-20.48-9.174-20.48-20.489
				c0-11.306,9.174-20.48,20.48-20.48C481.536,157.304,490.712,166.479,490.712,177.785z"/>
			<g i:knockout="Off">
				<path fill="#FFFFFF" d="M396.014,177.785c0,18.51-15.008,33.518-33.519,33.518c-18.51,0-33.513-15.008-33.513-33.518
					c0-18.511,15.003-33.509,33.513-33.509C381.006,144.276,396.014,159.274,396.014,177.785z"/>
				<path d="M382.99,177.785c0,11.315-9.174,20.489-20.49,20.489c-11.306,0-20.48-9.174-20.48-20.489
					c0-11.306,9.174-20.48,20.48-20.48C373.816,157.304,382.99,166.479,382.99,177.785z"/>
			</g>
			<g i:knockout="Off">
				<path fill="#FFFFFF" d="M416.361,275.599c0-37.868,27.208-40.237,53.513-40.237c-14.305,0-27.189-6.101-36.191-15.836
					c-8.619-9.764-9.061-15.816-17.322-15.816c-8.256,0-8.698,6.053-17.315,15.816c-9.003,9.736-21.889,15.836-36.192,15.836
					C389.157,235.362,416.366,237.731,416.361,275.599z"/>
				<path d="M418.797,275.599h-4.873c0.005-16.107-5.096-26.628-15.588-32.167c-9.855-5.196-23.483-5.634-35.483-5.634v-4.873
					c13.019,0,25.557-5.486,34.403-15.056c2.593-2.94,4.416-5.529,6.014-7.813c3.588-5.101,6.177-8.784,13.09-8.784
					c6.918,0,9.512,3.688,13.095,8.789c1.604,2.284,3.421,4.873,6.053,7.852c8.808,9.526,21.351,15.013,34.366,15.013v4.873
					C442.956,237.798,418.797,240.691,418.797,275.599L418.797,275.599L418.797,275.599z M382.515,233.896
					c6.462,0.837,12.714,2.389,18.096,5.229c7.708,4.068,12.919,10.312,15.727,18.886c5.215-16.292,18.349-22.103,33.913-24.097
					c-6.909-2.836-13.2-7.157-18.357-12.733c-2.851-3.226-4.83-6.053-6.425-8.318c-3.335-4.749-4.72-6.719-9.108-6.719
					c-4.183,0-5.515,1.613-9.103,6.719c-1.589,2.265-3.578,5.092-6.386,8.275C395.705,226.73,389.414,231.055,382.515,233.896
					L382.515,233.896z"/>
			</g>
		</g>
		<g i:knockout="Off">
			<path fill="#030303" d="M516.702,276.698v-31.182c-0.467,0.495-1,0.928-1.479,1.409c-0.742,0.737-1.504,1.451-2.275,2.16
				c-1.051,0.966-2.113,1.922-3.217,2.831c-0.746,0.619-1.527,1.204-2.299,1.794c-1.207,0.923-2.412,1.842-3.672,2.698
				c-0.641,0.433-1.307,0.828-1.961,1.242c-1.457,0.928-2.912,1.851-4.428,2.684c-0.166,0.09-0.342,0.162-0.504,0.252
				c-8.08,4.358-16.986,7.31-26.418,8.589c-0.086,0.016-0.172,0.038-0.258,0.049c-1.627,4.297-3.055,8.688-4.115,13.214
				c-6.229,26.595-1.402,52.938,11.111,73.879C501.151,337.963,516.702,309.146,516.702,276.698z"/>
			<path fill="#030303" d="M366.65,282.437c-1.056-4.525-2.484-8.917-4.121-13.214c-0.057-0.011-0.119-0.023-0.181-0.033
				c-9.631-1.299-18.71-4.325-26.923-8.817c-0.005-0.005-0.01-0.005-0.019-0.01c-1.618-0.885-3.169-1.865-4.72-2.864
				c-0.552-0.353-1.114-0.681-1.656-1.047c-1.342-0.909-2.626-1.885-3.911-2.874c-0.686-0.523-1.375-1.042-2.046-1.594
				c-1.17-0.966-2.303-1.979-3.421-3.017c-0.699-0.642-1.385-1.29-2.06-1.956c-0.514-0.509-1.076-0.971-1.57-1.494v31.182
				c0,32.452,15.55,61.269,39.514,79.622C368.049,335.379,372.874,309.036,366.65,282.437z"/>
			<path fill="#F2E8D9" d="M459.985,281.009c0.891-3.819,2.062-7.542,3.346-11.21c-1.127,0.053-2.234,0.177-3.379,0.177
				c-1.836,0-3.664-0.076-5.49-0.21c-0.666-0.042-1.332-0.134-1.998-0.194c-1.096-0.105-2.18-0.215-3.266-0.367
				c-0.961-0.128-1.907-0.305-2.858-0.471c-0.747-0.133-1.499-0.268-2.246-0.419c-1.128-0.237-2.245-0.504-3.364-0.785
				c-0.522-0.138-1.047-0.275-1.57-0.419c-1.256-0.347-2.502-0.724-3.734-1.132c-0.328-0.114-0.662-0.229-0.995-0.349
				c-1.38-0.476-2.75-0.984-4.102-1.542c-0.076-0.027-0.152-0.062-0.224-0.095c-3.08-1.275-6.097-2.722-9.009-4.396
				c-1.542,4.609-2.293,9.872-2.293,16.002h-4.873c0-6.139-0.757-11.405-2.298-16.008c-2.841,1.633-5.777,3.04-8.77,4.298
				c-0.181,0.075-0.361,0.155-0.542,0.231c-1.285,0.528-2.588,1.004-3.892,1.461c-0.405,0.144-0.804,0.286-1.208,0.419
				c-1.181,0.392-2.37,0.752-3.569,1.085c-0.58,0.162-1.161,0.314-1.741,0.462c-1.076,0.271-2.146,0.528-3.227,0.752
				c-0.794,0.166-1.589,0.305-2.389,0.447c-0.914,0.161-1.822,0.328-2.741,0.456c-1.123,0.157-2.25,0.268-3.378,0.376
				c-0.638,0.059-1.266,0.145-1.903,0.187c-1.827,0.134-3.654,0.21-5.491,0.21c-1.142,0-2.255-0.124-3.388-0.177
				c1.29,3.668,2.456,7.391,3.35,11.21c6.662,28.46,1.437,56.696-12.125,79.071c15.955,10.701,35.126,16.963,55.74,16.963
				c20.618,0,39.79-6.262,55.75-16.968C458.55,337.701,453.329,309.469,459.985,281.009z"/>
		</g>
		<g i:knockout="Off">
			<path fill="#FFFFFF" d="M505.966,124.962c11.906-8.094,17.482-23.421,17.482-47.77h-4.873c0,15.175-23.486,26.514-44.48,26.514
				c-11.877,0-40.646,1.808-57.739,18.125c-17.092-16.312-45.862-18.125-57.739-18.125c-20.994,0-44.481-11.339-44.481-26.514
				h-4.873c0,24.354,5.577,39.681,17.482,47.77c-20.746,15.046-33.014,39.062-33.014,64.985c0,18.905,6.543,36.273,17.416,49.987
				v36.764c0,58.022,47.194,105.218,105.208,105.218c58.019,0,105.216-47.193,105.216-105.218v-36.764
				c10.873-13.714,17.416-31.082,17.416-49.987C538.989,164.023,526.718,140.008,505.966,124.962z M316.021,276.698v-31.182
				c12.134,12.705,28.379,21.313,46.533,23.711c1.651,4.281,3.036,8.688,4.097,13.209c6.224,26.6,1.399,52.941-11.116,73.889
				C331.571,337.967,316.021,309.15,316.021,276.698z M516.702,276.698c0,32.452-15.551,61.269-39.514,79.617
				c-12.516-20.938-17.336-47.279-11.111-73.879c1.062-4.521,2.441-8.938,4.098-13.209c18.148-2.408,34.395-11.012,46.527-23.711
				V276.698z M516.702,238.231c-13.613,16.407-33.994,26.866-56.76,26.866c-13.076,0-25.742-3.47-36.981-10.06
				c-0.718,1.399-1.337,2.926-1.879,4.554c11.844,6.81,25.139,10.378,38.86,10.378c1.139,0,2.238-0.124,3.359-0.171
				c-1.303,3.654-2.422,7.396-3.316,11.21c-6.656,28.466-1.436,56.692,12.121,79.066c-15.955,10.706-35.131,16.968-55.75,16.968
				c-20.614,0-39.785-6.262-55.74-16.968c13.562-22.374,18.782-50.602,12.125-79.066c-0.895-3.814-2.018-7.556-3.321-11.21
				c1.123,0.047,2.217,0.171,3.35,0.171c13.743,0,27.047-3.577,38.896-10.396c-0.533-1.617-1.175-3.117-1.903-4.535
				c-11.239,6.59-23.906,10.06-36.992,10.06c-22.754,0-43.135-10.458-56.749-26.867c-1.737-2.084-3.369-4.254-4.873-6.528
				c-7.918-11.954-12.543-26.314-12.543-41.755c0-25.567,12.7-49.154,33.975-63.092l3.474-2.284l-3.683-1.917
				c-9.969-5.196-15.57-15.051-17.482-31.239c8.917,10.549,27.009,17.164,43.729,17.164c9.098,0,40.023,1.328,55.959,18.372
				l1.78,1.908l1.78-1.908c15.936-17.044,46.859-18.372,55.959-18.372c16.721,0,34.812-6.614,43.729-17.164
				c-1.912,16.188-7.514,26.043-17.48,31.239l-3.684,1.917l3.473,2.284c21.279,13.938,33.984,37.525,33.984,63.092
				c0,15.441-4.625,29.802-12.543,41.755C520.071,233.972,518.438,236.147,516.702,238.231z"/>
		</g>
		<g i:knockout="Off">
			<g i:knockout="Off">
				<path fill="#FFFFFF" stroke="#000000" stroke-width="4.8726" d="M362.777,377.006c0,4.635-3.759,8.402-8.394,8.402
					c-4.635,0-8.403-3.769-8.403-8.402c0-4.635,3.769-8.395,8.403-8.395C359.017,368.611,362.777,372.371,362.777,377.006z"/>
				<path fill="#FFFFFF" stroke="#000000" stroke-width="4.8726" d="M379.574,377.006c0,4.635-3.759,8.402-8.394,8.402
					c-4.645,0-8.403-3.769-8.403-8.402c0-4.635,3.759-8.395,8.403-8.395C375.815,368.611,379.574,372.371,379.574,377.006z"/>
				<path fill="#FFFFFF" stroke="#000000" stroke-width="4.8726" d="M396.371,377.006c0,4.635-3.769,8.402-8.403,8.402
					c-4.635,0-8.394-3.769-8.394-8.402c0-4.635,3.759-8.395,8.394-8.395C392.602,368.611,396.371,372.371,396.371,377.006z"/>
			</g>
			<g i:knockout="Off">
				<path fill="#FFFFFF" stroke="#000000" stroke-width="4.8726" d="M453.157,377.006c0,4.635-3.769,8.402-8.402,8.402
					s-8.395-3.769-8.395-8.402c0-4.635,3.76-8.395,8.395-8.395S453.157,372.371,453.157,377.006z"/>
				<path fill="#FFFFFF" stroke="#000000" stroke-width="4.8726" d="M469.946,377.006c0,4.635-3.76,8.402-8.395,8.402
					s-8.395-3.769-8.395-8.402c0-4.635,3.76-8.395,8.395-8.395S469.946,372.371,469.946,377.006z"/>
				<path fill="#FFFFFF" stroke="#000000" stroke-width="4.8726" d="M486.743,377.006c0,4.635-3.76,8.402-8.395,8.402
					s-8.402-3.769-8.402-8.402c0-4.635,3.77-8.395,8.402-8.395C482.983,368.611,486.743,372.371,486.743,377.006z"/>
			</g>
		</g>
	</g>
</g>
</svg>
