<svg width="640" height="480" xmlns="http://www.w3.org/2000/svg">
 <!-- Created with SVG-edit - http://svg-edit.googlecode.com/ -->
 <g>
  <title>Calque 1</title>
  <path d="m331.285706,99.14286c-1,0 -3.009735,-0.802925 -5,-1c-10.148407,-1.00489 -12,-2 -20,-2c-22,0 -39,0 -61,0c-22,0 -33.9879,0.499931 -65,1c-9.998703,0.161232 -20.101501,0.145004 -37,2c-18.328979,2.012016 -21.350891,-0.324547 -34,5.999992c-2.529816,1.264908 -6,2 -7,3c-1,1 -1,2 -2,3c-3,3 -4.173088,3.852737 -5,5c-1.307449,1.813995 -2.173088,2.852737 -3,4c-1.307449,1.813995 -3.144287,6.934143 -4,9c-1.210144,2.92157 -1,4 -2,6c-2,4 -2,6 -2,9c0,4 -1,5 -1,16c0,8 -0.221199,12.006119 0,16c0.500771,9.041534 0.014633,17.04866 1,27c1.004898,10.148407 1.414665,20.069 3,31.000031c1.463737,10.092438 5.002457,25.167114 8,40c2.258499,11.175842 4.644012,15.075623 8,30c0.904556,4.022644 2.735092,7.205261 4,11c1.581146,4.743408 3.548325,14.126678 6,22c2.540222,8.157654 3.294067,12.012177 8,18c3.0896,3.931213 6.206818,5.812653 8,8c2.285889,2.78833 4.4505,4.4505 7,7c2.549515,2.5495 5.74675,5.371338 10,8c1.902115,1.175568 4.967651,1.116882 12,3c3.982788,1.066498 14,1 24,1c17,0 24,0 49,0c17,0 39.004395,0.439728 61,0c25.014984,-0.500092 38.387939,-1.954163 64,-7c25.612091,-5.045837 36.779205,2.60257 47.714325,-1.571472c10.935181,-4.174042 24.093353,2.697174 52.857117,-2.571411c28.763702,-5.268585 23.6138,-12.562042 19.285736,-20.571442c-4.328064,-8.009399 -52.928802,-26.642853 -47.857178,-32.785675c5.071625,-6.142822 64.090363,17.191956 93,13.5c-2.031494,-3.587921 0.677917,-7.65799 -8,-22c-0.732056,-1.209961 -3.923035,-3.052765 -6,-6c-2.375092,-3.3703 -4.103333,-5.906342 -5,-7c-2.285828,-2.78833 -4.477783,-3.83194 -13,-8c-3.238953,-1.584106 -4.763947,-2.763947 -7,-5c-2.236053,-2.236053 -6.607941,-2.789185 -15,-9c-2.898132,-2.144897 -9.29364,-8.473297 -15,-12c-6.805237,-4.205841 -15.80484,-3.279572 -20,-6c-8.638306,-5.601715 -9.838684,-5.170502 -13,-8c-4.771118,-4.270386 -6.458801,-4.693451 -7,-6c-0.382721,-0.923889 -2.337494,-2.310028 -4,-5c-0.74353,-1.203003 -1.458801,-2.693451 -2,-4c-0.382721,-0.923889 0,-3 0,-4c0,-2.000031 0,-5.000031 0,-9.000031c0,-2 0,-4 0,-8c0,-10 -0.013123,-18.757111 1,-25c0.640717,-3.948349 1.995911,-9.864838 3,-21c0.359253,-3.983841 -0.122162,-13.007492 0,-14c0.503784,-4.092209 1,-7 1,-11c0,-10 1,-12 1,-20c0,-2 0,-6 0,-10c0,-4 -56.856903,-13.714256 -56.856903,-15.714256c0,-15 56.856903,-11.285744 56.856903,-16.285744c0,-1 -0.917603,-3.386871 -2,-6c-0.382721,-0.923874 -1.103363,-1.906326 -2,-3c-2.285858,-2.788315 -1.934143,-4.144287 -4,-5c-2.921539,-1.210148 -5,-1.999996 -8,-1.999996c-2,0 -6,0 -10,0c-1,0 -2.171631,-1.159142 -6,0c-3.450836,1.044827 -11.129669,3.885311 -12,4.999996c-3.58844,4.595993 -7.30719,4.689064 -14,10c-2.824402,2.241211 -6.069824,4.621513 -9,8c-2.07193,2.388962 -6.693481,6.458817 -8,7.000008c-1.847778,0.765373 -2.292877,1.2929 -3,2c-1.414246,1.414223 -3,1 -4,1l-1,0" id="svg_5" stroke-linecap="round" stroke-linejoin="null" stroke-width="5" stroke="#000000" fill="#ffffaa"/>
  <ellipse ry="66" rx="50" id="svg_7" cy="189" cx="163" stroke-linecap="round" stroke-linejoin="null" stroke-width="5" stroke="#000000" fill="#ffffff"/>
  <ellipse id="svg_8" cy="177" cx="145" stroke-linecap="round" stroke-linejoin="null" stroke-width="5" stroke="#000000" fill="none"/>
  <ellipse id="svg_9" ry="66" rx="50" cy="187" cx="279" stroke-linecap="round" stroke-linejoin="null" stroke-width="5" stroke="#000000" fill="#ffffff"/>
  <rect transform="rotate(-41.80046081542969 220.15414428710935,274.90924072265625) " id="svg_11" height="65.74547" width="64.398818" y="242.036502" x="187.954735" stroke-linecap="round" stroke-linejoin="null" stroke-width="5" stroke="#000000" fill="#bfbfbf"/>
  <ellipse transform="rotate(-90 170.00000000000003,187) " ry="16" rx="21" id="svg_14" cy="187" cx="170" stroke-linecap="round" stroke-linejoin="null" stroke-width="5" stroke="#000000" fill="#000000"/>
  <ellipse id="svg_15" cy="210" cx="176" stroke-linecap="round" stroke-linejoin="null" stroke-width="5" stroke="#000000" fill="none"/>
  <ellipse id="svg_16" cy="167" cx="143" stroke-linecap="round" stroke-linejoin="null" stroke-width="5" stroke="#000000" fill="none"/>
  <ellipse id="svg_17" transform="rotate(-90 260.00000000000006,184.00000000000003) " ry="16" rx="21" cy="184" cx="260" stroke-linecap="round" stroke-linejoin="null" stroke-width="5" stroke="#000000" fill="#000000"/>
  <rect transform="rotate(-47.64640426635742 112.53123474121101,116.44785308837889) " id="svg_18" height="124.777908" width="153.93607" y="54.058898" x="35.563203" stroke-linecap="round" stroke-linejoin="null" stroke-width="5" stroke="#000000" fill="#0000ff"/>
  <path d="m183,69c1,-8 7,-11 10,-14c1,-1 3.811447,-1.134644 6,-4c1.919479,-2.513084 2.186005,-3.692547 4,-5c1.147263,-0.826904 2.228363,-0.851952 5,-2c1.306564,-0.541199 1,-2 2,-2c1,0 2.076126,0.382683 3,0c1.306564,-0.541199 2,-1 3,-1c5,0 6.186005,-0.307449 8,1c1.147263,0.826904 2.002518,1.929111 3,2c7.053284,0.501263 7.823761,1.486256 10,2c0.973236,0.229752 2.693451,0.458805 4,1c0.923889,0.382683 0.585785,0.585785 2,2c0.707092,0.707108 1.076111,0.617317 2,1c1.306549,0.541195 2,1 3,1c1,0 1.693451,0.458805 3,1c1.847748,0.765366 2,1 3,1c1,0 4,0 5,0c1,0 1.693451,-0.458805 3,-1c0.923889,-0.382683 1.076111,-0.617317 2,-1c1.306549,-0.541195 2.309998,-3.337494 5,-5c1.203003,-0.743496 1,-2 2,-3l0,-1l1,0" id="svg_19" stroke-linecap="round" stroke-linejoin="null" stroke-width="5" stroke="#000000" fill="none"/>
  <path d="m152,42c0,-1 1.61731,-4.076118 2,-5c1.082397,-2.613125 3,-3 4,-4c1,-1 2.097885,-2.824429 4,-4c0.850647,-0.525732 2.186005,-0.692547 4,-2c1.147263,-0.826904 2,-2 3,-2c1,0 2,-1 3,-1c1,0 2.012909,-0.839817 3,-1c3.121445,-0.50654 4,-1 5,-1c1,0 2,0 3,0c1,0 2,0 3,0c1,0 2,0 3,0c2,0 4.076126,-0.382683 5,0c1.306564,0.541195 2.823746,1.486258 5,2c0.973251,0.229752 2,0 4,0c2,0 3.076126,-0.382683 4,0c1.306564,0.541195 3,1 4,1c1,0 2.292892,-0.707106 3,0c0.707108,0.707108 1,1 2,1c1,0 1,1 3,1c1,0 1,1 2,1c1,0 2,0 4,0c1,0 2,0 3,0c2,0 5,0 7,0c1,0 2,0 3,0c2,0 3,0 5,0c1,0 2,0 3,0c1,0 2,0 3,0c1,0 2,0 3,0c1,0 2,0 3,0c1,0 2,0 3,0c1,0 1,-1 2,-1l0,-1l1,0" id="svg_20" stroke-linecap="round" stroke-linejoin="null" stroke-width="5" stroke="#000000" fill="none"/>
  <path d="m140,382c0,0 0,-1 0,-2c0,-1 0,-2 0,-3c0,-1 0.292892,-2.292908 1,-3c0.707108,-0.707092 1.292892,-0.292908 2,-1c0.707108,-0.707092 2.292892,-0.292908 3,-1c0.707108,-0.707092 1.458801,-0.693451 2,-2c0.38269,-0.923889 0.292892,-1.292908 1,-2c1.414215,-1.414215 4,-1 6,-1c1,0 2,0 3,0c1,0 2,0 3,0c2,0 3,0 4,0c1,0 2,1 3,1c1,0 2.149353,0.474274 3,1c1.902115,1.175568 1.298691,2.948547 3,4c1.902115,1.175568 2,2 2,3c0,1 0,2 0,3c0,1 0,2 0,3c0,1 0,2 0,-2c0,-2 0,-3 0,-4c0,-2 1,-3 3,-7c1,-2 1.692551,-2.186005 3,-4c0.826904,-1.147278 3.076126,-1.61731 4,-2c1.306564,-0.541199 1,-2 2,-2c1,0 2.026749,0.229767 3,0c2.176254,-0.513733 4,-1 8,-1c4,0 6,0 8,0c1,0 2.292892,-0.707092 3,0c0.707108,0.707092 2,1 3,2c1,1 3.458801,1.693451 4,3c0.38269,0.923889 0.292892,1.292908 1,2c0.707108,0.707092 1.292892,0.292908 2,1c0.707108,0.707092 1,2 2,3c1,1 1.292892,2.292908 2,3c0.707108,0.707092 0.486252,3.823761 1,6c0.229752,0.973236 0,2 0,3c0,1 0,-1 0,-2c0,-1 0,-2 0,-3c0,-2 1.337494,-5.309998 3,-8c0.7435,-1.203003 2.61731,-2.076111 3,-3c1.082397,-2.613129 3,-2 4,-2c2,0 5.036285,-0.733063 6,-1c5.619385,-1.556488 7,-4 10,-4c5,0 8,0 12,0c1,0 2.076111,-0.38269 3,0c1.306549,0.541199 1,2 2,4c1,2 3.458801,1.693451 4,3c0.38269,0.923889 0.292908,2.292908 1,3c1.414215,1.414215 3,1 3,2c0,1 0,2 0,3c0,1 0,2 0,3l0,1l0,1l0,1" id="svg_12" stroke-linecap="round" stroke-linejoin="null" stroke-width="5" stroke="#000000" fill="#7f3f00"/>
  <path d="m294.428558,382.142853c0,0 0,-5 0,-6c0,-1 0,-2 0,-3c0,-1 -0.244354,-3.014984 0,-5c0.503784,-4.092224 1.292908,-5.292908 2,-6c0.707092,-0.707092 2,-2 3,-3c1,-1 1.693451,-2.458801 3,-3c0.923889,-0.38269 1,-1 2,-1c1,0 2,0 3,0c2,0 3,0 7,0c4,0 8,0 11,0c1,0 2,0 3,0c1,0 3.007507,-0.122192 4,0c4.092224,0.503784 7,2 8,2c1,0 1.292908,0.292908 2,1c0.707092,0.707092 2.026764,0.770233 3,1c2.176239,0.513733 2.61731,1.076111 3,2c0.541199,1.306549 2.337494,3.309998 4,6c1.487,2.406006 2,3 2,4c0,1 0,2 0,3c0,1 -1.458801,0.693451 -2,2c-0.38269,0.923889 -2,2 -1,2c1,0 0.458801,-1.693451 1,-3c0.765381,-1.847748 1.486267,-2.823761 2,-5c0.459503,-1.946503 0.692535,-3.186005 2,-5c1.653809,-2.294525 4,-5 6,-7c2,-2 4.053497,-2.540497 6,-3c2.176239,-0.513733 2,-2 4,-2c1,0 1.292908,-0.292908 2,-1c0.707092,-0.707092 2,0 3,0c1,0 2.292908,-0.707092 3,0c0.707092,0.707092 3.705475,1.346191 6,3c1.813995,1.307465 6,2 8,4c1,1 2.076111,2.61731 3,3c1.306549,0.541199 2,2 3,3c2,2 2,4 2,5c0,2 0,3 0,4c0,1 0,-1 0,-3c0,-1 -0.276489,-2.00766 0,-7c0.500763,-9.041534 2.917603,-11.386871 4,-14c0.38269,-0.923889 1.585785,-0.585785 3,-2c0.707092,-0.707092 1,-1 2,-1c1,0 2.038727,0.48056 5,0c3.121429,-0.506531 5,-1 7,-1c2,0 4,0 5,0c1,0 1.292908,0.292908 2,1c0.707092,0.707092 1.076111,0.61731 2,1c1.306549,0.541199 1.693451,2.458801 3,3c0.923889,0.38269 1.458801,0.693451 2,2c0.765381,1.847748 0.824432,2.0979 2,4c1.051453,1.701294 1,3 1,5l1,1l0,7" id="svg_13" stroke-linecap="round" stroke-linejoin="null" stroke-width="5" stroke="#000000" fill="#7f3f00"/>
  <ellipse id="svg_26" ry="20.5" rx="21.000001" cy="312.499969" cx="69.818177" stroke-linecap="round" stroke-linejoin="null" stroke-width="5" stroke="#000000" fill="#7f3f00"/>
  <ellipse id="svg_28" ry="16" rx="17.000001" cy="313.99997" cx="110.818177" stroke-linecap="round" stroke-linejoin="null" stroke-width="5" stroke="#000000" fill="#7f3f00"/>
  <ellipse ry="16" rx="17.000001" id="svg_23" cy="313.99997" cx="29.818177" stroke-linecap="round" stroke-linejoin="null" stroke-width="5" stroke="#000000" fill="#7f3f00"/>
 </g>
</svg>