
<?xml version="1.0" encoding="utf-8"?>
<!-- Generator: Adobe Illustrator 14.0.0, SVG Export Plug-In . SVG Version: 6.00 Build 43363)  -->
<!DOCTYPE svg PUBLIC "-//W3C//DTD SVG 1.1//EN" "http://www.w3.org/Graphics/SVG/1.1/DTD/svg11.dtd" [
	<!ENTITY ns_flows "http://ns.adobe.com/Flows/1.0/">
	<!ENTITY ns_extend "http://ns.adobe.com/Extensibility/1.0/">
	<!ENTITY ns_ai "http://ns.adobe.com/AdobeIllustrator/10.0/">
	<!ENTITY ns_graphs "http://ns.adobe.com/Graphs/1.0/">
	<!ENTITY ns_vars "http://ns.adobe.com/Variables/1.0/">
	<!ENTITY ns_imrep "http://ns.adobe.com/ImageReplacement/1.0/">
	<!ENTITY ns_sfw "http://ns.adobe.com/SaveForWeb/1.0/">
	<!ENTITY ns_custom "http://ns.adobe.com/GenericCustomNamespace/1.0/">
	<!ENTITY ns_adobe_xpath "http://ns.adobe.com/XPath/1.0/">
]>
<svg version="1.1"
	 xmlns:x="&ns_extend;" xmlns:i="&ns_ai;" xmlns:graph="&ns_graphs;" i:viewOrigin="0 595.2803" i:rulerOrigin="0 0" i:pageBounds="0 595.2803 841.8896 0"
	 xmlns="http://www.w3.org/2000/svg" xmlns:xlink="http://www.w3.org/1999/xlink" xmlns:a="http://ns.adobe.com/AdobeSVGViewerExtensions/3.0/"
	 x="0px" y="0px" width="841.89px" height="595.28px" viewBox="0 0 841.89 595.28" enable-background="new 0 0 841.89 595.28"
	 xml:space="preserve">
 <metadata/>
 <g>
  <title>Layer 1</title>
  <ellipse ry="270.99999" rx="279.00003" id="svg_43" cy="292.71996" cx="458.11002" stroke-linecap="null" stroke-linejoin="null" fill="#ffffff"/>
  <g id="Calque_1">
   <g id="svg_13">
    <path fill="#FFFFFF" d="m582.15369,167.52332c15.93652,-12.11336 23.40015,-35.05817 23.40015,-71.52847h-6.52258c0,22.72466 -31.43683,39.70492 -59.5379,39.70492c-15.89771,0 -54.40591,2.70752 -77.28549,27.13484c-22.87805,-24.42732 -61.38763,-27.13484 -77.28531,-27.13484c-28.1011,0 -59.53912,-16.98026 -59.53912,-39.70492h-6.52267c0,36.4703 7.46494,59.41511 23.40018,71.52847c-27.76917,22.54648 -44.19028,58.50163 -44.19028,97.32306c0,28.31781 8.758,54.32657 23.31186,74.84839v55.06189c0,86.88843 63.17062,157.56476 140.82416,157.56476c77.66022,0 140.83466,-70.67191 140.83466,-157.56476v-55.06189c14.55383,-20.52182 23.31189,-46.53058 23.31189,-74.84839c0.00275,-38.82143 -16.42236,-74.77658 -44.19952,-97.32306zm-254.24716,227.23334v-46.69528c16.2417,19.02582 37.98611,31.90887 62.28586,35.5029c2.2099,6.41083 4.06375,13.01031 5.48392,19.78806c8.33099,39.83374 1.87256,79.2796 -14.87906,110.64188c-32.07654,-27.48672 -52.89072,-70.64044 -52.89072,-119.23755zm59.69174,124.85773c18.15317,-33.50531 25.14032,-75.7829 16.22971,-118.40195c-1.198,-5.71902 -2.70117,-11.31519 -4.44525,-16.79459c1.50311,0.0704 2.96747,0.26355 4.4841,0.26355c20.85968,0 40.98038,-6.88409 58.3425,-19.93185c17.36206,13.04776 37.48828,19.93185 58.33975,19.93185c1.52466,0 2.99573,-0.19321 4.49615,-0.26355c-1.74402,5.4794 -3.24188,11.07556 -4.4386,16.79459c-8.90918,42.61905 -1.92206,84.89664 16.22437,118.40195c-21.3562,16.03229 -47.02386,25.40973 -74.62314,25.40973c-27.59103,0 -53.25323,-9.37744 -74.60959,-25.40973zm208.9259,-124.85773c0,48.5896 -20.81555,91.74481 -52.89081,119.22711c-16.75299,-31.35934 -23.20465,-70.80823 -14.87238,-110.6344c1.42157,-6.77621 3.2674,-13.38474 5.48529,-19.78809c24.29169,-3.59851 46.03882,-16.47711 62.27789,-35.50287v46.69824l0,0zm0,-57.59714c-18.2215,24.55463 -45.50195,40.22452 -75.9751,40.22452c-20.25858,0 -39.78244,-6.92599 -56.46313,-20.04562l-1.87927,-1.46756l-1.87265,1.46756c-16.67545,13.11963 -36.20325,20.04562 -56.46991,20.04562c-30.45694,0 -57.73752,-15.6684 -75.96021,-40.22452c-2.32507,-3.1358 -4.50958,-6.38538 -6.52274,-9.79071c-10.59845,-17.89374 -16.78915,-39.39792 -16.78915,-62.521c0,-38.28676 16.99933,-73.60846 45.47653,-94.48822l4.65012,-3.40532l-4.92987,-2.8782c-13.34372,-7.78105 -20.84085,-22.53899 -23.40012,-46.78814c11.93561,15.8047 36.15231,25.70921 58.53253,25.70921c12.17798,0 53.57199,1.98122 74.90286,27.51971l2.3826,2.84972l2.38257,-2.84972c21.33081,-25.5385 62.72217,-27.51971 74.90277,-27.51971c22.38165,0 46.59692,-9.90451 58.53259,-25.70921c-2.5592,24.24912 -10.05768,39.00709 -23.39752,46.78814l-4.93115,2.8782l4.64874,3.40532c28.4826,20.87825 45.48853,56.20146 45.48853,94.48822c0,23.12308 -6.19055,44.62875 -16.78912,62.521c-2.01044,3.40533 -4.19623,6.65491 -6.5199,9.79071z" id="svg_14"/>
    <g id="svg_15">
     <g id="svg_16">
      <path fill="#1B171B" d="m584.15344,51.438h-249.23035c-2.70114,0 -4.89096,2.45141 -4.89096,5.47339s2.19116,5.47189 4.89096,5.47189h11.82724v21.64797l-10.18488,22.75912h21.25452h5.63654l-10.18484,-22.83101v-21.57609h30.30566v31.31739c0,14.67854 18.44498,24.90505 35.00525,24.90505c6.45172,0 28.3942,1.05424 39.69949,14.57823c0.32523,0.39235 0.78296,0.61249 1.26086,0.61249s0.93698,-0.22014 1.26093,-0.61249c11.30521,-13.52399 33.24234,-14.57823 39.69278,-14.57823c16.56024,0 35.00391,-10.22649 35.00391,-24.90505v-31.31739h48.65021c2.70111,0 4.89093,-2.45142 4.89093,-5.47189s-2.18707,-5.47339 -4.88824,-5.47339z" id="svg_17"/>
     </g>
     <g id="svg_18">
      <path fill="#030303" d="m459.53754,346.87836l1.87936,1.47501c16.67538,13.11819 36.19653,20.05313 56.46317,20.05313c54.74329,0 99.28961,-50.48547 99.28961,-112.5437c0,-38.2793 -17.00342,-73.60101 -45.49133,-94.48825l-4.65814,-3.40532l4.93787,-2.87822c13.34381,-7.78105 20.83014,-22.53151 23.39349,-46.78812c-11.93433,15.80469 -36.15106,25.70919 -58.53259,25.70919c-12.18066,0 -53.56796,1.98123 -74.89746,27.51973l-2.3826,2.84973l-2.3812,-2.84973c-21.33087,-25.5385 -62.72498,-27.51973 -74.90283,-27.51973c-22.38824,0 -46.59689,-9.9045 -58.53397,-25.70919c2.55396,24.24914 10.05774,39.00707 23.3949,46.78812l4.93646,2.87822l-4.65674,3.40532c-28.47055,20.87825 -45.47662,56.20146 -45.47662,94.48825c0,62.05823 44.5343,112.5437 99.27753,112.5437c20.26797,0 39.78918,-6.93494 56.46457,-20.05313l1.87653,-1.47501l0,0l0,0z" id="svg_19"/>
     </g>
     <path fill="#FFFFFF" d="m576.49567,237.64864c0,27.71883 -20.08856,50.19347 -44.86487,50.19347c-24.7789,0 -44.85947,-22.47464 -44.85947,-50.19347c0,-27.7204 20.08057,-50.18002 44.85947,-50.18002c24.77618,0 44.86487,22.45963 44.86487,50.18002z" id="svg_20"/>
     <path d="m559.05865,237.64864c0,16.94429 -12.28235,30.68239 -27.43182,30.68239c-15.13477,0 -27.41318,-13.7381 -27.41318,-30.68239c0,-16.93085 12.27982,-30.66899 27.41318,-30.66899c15.14948,-0.0015 27.43182,13.73814 27.43182,30.66899z" id="svg_21"/>
     <g id="svg_22">
      <path fill="#FFFFFF" d="m432.30249,237.64864c0,27.71883 -20.08859,50.19347 -44.86621,50.19347c-24.77612,0 -44.85806,-22.47464 -44.85806,-50.19347c0,-27.7204 20.08194,-50.18002 44.85806,-50.18002c24.77762,0 44.86621,22.45963 44.86621,50.18002z" id="svg_23"/>
      <path d="m414.86948,237.64864c0,16.94429 -12.27963,30.68239 -27.42645,30.68239c-15.13345,0 -27.41312,-13.7381 -27.41312,-30.68239c0,-16.93085 12.27966,-30.66899 27.41312,-30.66899c15.14682,-0.0015 27.42645,13.73814 27.42645,30.66899z" id="svg_24"/>
     </g>
     <g id="svg_25">
      <path fill="#FFFFFF" d="m459.53754,384.12585c0,-56.70761 36.41882,-60.25522 71.62878,-60.25522c-19.14764,0 -36.39325,-9.13629 -48.44275,-23.71454c-11.53671,-14.62164 -12.12836,-23.68457 -23.18604,-23.68457c-11.05087,0 -11.64252,9.06436 -23.17661,23.68457c-12.05084,14.57971 -29.29907,23.71454 -48.44406,23.71454c35.20734,0 71.62735,3.54761 71.62067,60.25522z" id="svg_26"/>
      <path d="m462.79825,384.12585h-6.52271c0.00671,-24.12036 -6.82111,-39.87564 -20.86499,-48.17035c-13.19125,-7.78107 -31.43268,-8.43695 -47.49503,-8.43695v-7.29736c17.4263,0 34.20877,-8.21533 46.04947,-22.54645c3.47083,-4.40274 5.91092,-8.27979 8.04987,-11.70004c4.80267,-7.63879 8.26816,-13.15408 17.52136,-13.15408c9.25998,0 12.73215,5.52277 17.52811,13.16156c2.14691,3.42032 4.57913,7.29739 8.10208,11.75845c11.78983,14.26523 28.57895,22.48203 45.99991,22.48203v7.29739c-36.03049,-0.0015 -68.36807,4.33078 -68.36807,56.6058l0,0l0,0zm-48.56451,-62.45059c8.64954,1.25345 17.01804,3.57755 24.22198,7.83051c10.31735,6.09183 17.29254,15.44226 21.05109,28.28189c6.98041,-24.3974 24.56073,-33.0994 45.39359,-36.08542c-9.24789,-4.24698 -17.66864,-10.71765 -24.57138,-19.06778c-3.81619,-4.83096 -6.46518,-9.06439 -8.60016,-12.45627c-4.46396,-7.11166 -6.31778,-10.0618 -12.19131,-10.0618c-5.59903,0 -7.38196,2.41553 -12.1846,10.0618c-2.12695,3.39188 -4.78931,7.62531 -8.54788,12.39188c-6.91614,8.37405 -15.33682,14.85077 -24.57132,19.10519l0,0l0,0z" id="svg_27"/>
     </g>
    </g>
    <g id="svg_28">
     <path fill="#030303" d="m593.84711,385.77161v-46.69528c-0.62506,0.74127 -1.33862,1.38968 -1.97974,2.10999c-0.99316,1.10367 -2.01306,2.17285 -3.04504,3.23462c-1.40686,1.44656 -2.82843,2.8782 -4.30615,4.23944c-0.99854,0.92694 -2.04388,1.80301 -3.07721,2.68652c-1.6156,1.3822 -3.22858,2.75842 -4.9151,4.04025c-0.85809,0.64844 -1.74945,1.23996 -2.62488,1.85992c-1.95026,1.38968 -3.89777,2.77194 -5.92706,4.01935c-0.22217,0.13477 -0.4577,0.24258 -0.67456,0.37732c-10.81531,6.52615 -22.73627,10.94681 -35.36133,12.86212c-0.11511,0.02396 -0.23022,0.05695 -0.34534,0.07339c-2.1778,6.43475 -4.08923,13.01031 -5.50806,19.78806c-8.33771,39.8262 -1.87659,79.27509 14.87244,110.63437c32.07648,-27.4852 52.89203,-70.63892 52.89203,-119.23007z" id="svg_29"/>
     <path fill="#030303" d="m392.99792,394.36581c-1.41354,-6.77621 -3.32492,-13.35327 -5.51611,-19.78806c-0.07629,-0.01648 -0.15927,-0.03445 -0.24225,-0.04947c-12.89145,-1.94522 -25.04388,-6.47668 -36.03726,-13.20346c-0.00668,-0.00751 -0.01343,-0.00751 -0.02548,-0.01498c-2.16571,-1.32532 -4.24176,-2.79288 -6.31781,-4.28885c-0.73886,-0.52869 -1.49115,-1.01984 -2.21658,-1.56796c-1.7963,-1.36121 -3.51498,-2.82275 -5.23502,-4.3038c-0.91824,-0.78317 -1.84048,-1.56039 -2.73868,-2.38705c-1.56601,-1.44656 -3.08261,-2.96356 -4.57907,-4.51794c-0.93564,-0.9614 -1.85385,-1.93179 -2.75742,-2.92914c-0.68796,-0.76221 -1.44019,-1.45407 -2.10144,-2.23724v46.69525c0,48.59711 20.81415,91.75085 52.89069,119.23459c16.74905,-31.36084 23.2074,-70.80963 14.87643,-110.64188z" id="svg_30"/>
     <path fill="#F2E8D9" d="m517.92963,392.22736c1.19263,-5.71896 2.76001,-11.29419 4.4787,-16.78705c-1.50848,0.07935 -2.99023,0.26505 -4.52289,0.26505c-2.45758,0 -4.90442,-0.11383 -7.34848,-0.31445c-0.89145,-0.06293 -1.7829,-0.20071 -2.6745,-0.29056c-1.46692,-0.15723 -2.91785,-0.32199 -4.37155,-0.54959c-1.28632,-0.19165 -2.55258,-0.45673 -3.82547,-0.70526c-0.99994,-0.19919 -2.00647,-0.40134 -3.00632,-0.6275c-1.50995,-0.35486 -3.0051,-0.75476 -4.5029,-1.17554c-0.6987,-0.20667 -1.40146,-0.4118 -2.10147,-0.62747c-1.68124,-0.51959 -3.34897,-1.08417 -4.99805,-1.69513c-0.43912,-0.17075 -0.88608,-0.34299 -1.33185,-0.52264c-1.84726,-0.71283 -3.68103,-1.47357 -5.49066,-2.30914c-0.10175,-0.04047 -0.20352,-0.09286 -0.2998,-0.14227c-4.12271,-1.90936 -8.1611,-4.07623 -12.05887,-6.5831c-2.06403,6.90204 -3.06918,14.78342 -3.06918,23.96317h-6.52271c0,-9.19324 -1.01328,-17.0791 -3.07593,-23.97211c-3.80286,2.4454 -7.7327,4.55246 -11.73889,6.43631c-0.24231,0.11227 -0.48318,0.23212 -0.72549,0.34592c-1.72006,0.79068 -3.4642,1.50348 -5.20959,2.18784c-0.54211,0.21564 -1.0762,0.42828 -1.61691,0.62747c-1.58087,0.58701 -3.17236,1.12613 -4.77725,1.62476c-0.77625,0.24265 -1.55399,0.47021 -2.33038,0.69189c-1.44016,0.40579 -2.8725,0.79068 -4.31937,1.12613c-1.0629,0.24857 -2.12695,0.45673 -3.19775,0.66937c-1.22342,0.24109 -2.43884,0.49115 -3.66895,0.68283c-1.5032,0.23514 -3.01172,0.40137 -4.52164,0.56308c-0.85394,0.08835 -1.69455,0.2171 -2.54718,0.28006c-2.44543,0.20059 -4.89093,0.31445 -7.34979,0.31445c-1.52863,0 -3.01843,-0.18567 -4.535,-0.26505c1.72672,5.49283 3.28745,11.06805 4.48407,16.78705c8.9173,42.61908 1.92343,84.90274 -16.22961,118.40945c21.35614,16.02478 47.01715,25.40222 74.60965,25.40222c27.59778,0 53.2601,-9.37744 74.62302,-25.40973c-18.14783,-33.50375 -25.1362,-75.7814 -16.22699,-118.40045l0,0z" id="svg_31"/>
    </g>
    <g id="svg_32">
     <path fill="#FFFFFF" d="m579.47656,158.54575c15.93658,-12.12083 23.40021,-35.07313 23.40021,-71.53594h-6.52264c0,22.72468 -31.43677,39.70492 -59.53784,39.70492c-15.89777,0 -54.40582,2.7075 -77.28537,27.14233c-22.8782,-24.42734 -61.3877,-27.14233 -77.2854,-27.14233c-28.1011,0 -59.53922,-16.98024 -59.53922,-39.70492h-6.52264c0,36.47029 7.465,59.4226 23.40021,71.53594c-27.76913,22.53149 -44.19031,58.49567 -44.19031,97.31555c0,28.31039 8.758,54.31912 23.31192,74.85596v55.05435c0,86.8884 63.17059,157.56476 140.8241,157.56476c77.66013,0 140.83481,-70.67188 140.83481,-157.56476v-55.05435c14.55377,-20.53683 23.31177,-46.54556 23.31177,-74.85596c0.00275,-38.8214 -16.4223,-74.78406 -44.19958,-97.31555zm-254.2471,227.22586v-46.69528c16.24173,19.02585 37.98615,31.91641 62.28583,35.50735c2.20987,6.41086 4.06384,13.01041 5.48398,19.78064c8.33096,39.83374 1.87259,79.27954 -14.87912,110.64935c-32.07651,-27.49124 -52.89069,-70.64493 -52.89069,-119.24207zm268.61765,0c0,48.59714 -20.81555,91.75082 -52.89075,119.22708c-16.75299,-31.35483 -23.20477,-70.80063 -14.87238,-110.63437c1.42145,-6.77026 3.26733,-13.3848 5.48529,-19.78064c24.29163,-3.60596 46.03876,-16.49051 62.27783,-35.50735v46.69528l0,0zm0,-57.60464c-18.2215,24.56961 -45.50214,40.23203 -75.97504,40.23203c-17.50262,0 -34.45645,-5.19629 -49.50012,-15.06491c-0.96115,2.09503 -1.78964,4.38174 -2.51523,6.81967c15.85361,10.19803 33.64935,15.54114 52.01535,15.54114c1.52454,0 2.99567,-0.18573 4.49609,-0.25607c-1.74414,5.4718 -3.24188,11.07556 -4.43854,16.78702c-8.90921,42.62805 -1.92206,84.89679 16.22437,118.40198c-21.35626,16.03229 -47.02386,25.40973 -74.62308,25.40973c-27.59247,0 -53.25345,-9.37744 -74.60971,-25.40973c18.15323,-33.50519 25.14029,-75.77689 16.22974,-118.40198c-1.19797,-5.71149 -2.7012,-11.31522 -4.44522,-16.78702c1.50314,0.07034 2.96741,0.25607 4.48401,0.25607c18.39539,0 36.20316,-5.35663 52.06345,-15.56815c-0.71341,-2.42142 -1.57278,-4.66772 -2.54718,-6.79117c-15.04376,9.86856 -31.99893,15.06494 -49.51492,15.06494c-30.45694,0 -57.73755,-15.66098 -75.96021,-40.23355c-2.32501,-3.12082 -4.50955,-6.37042 -6.52277,-9.77576c-10.59845,-17.90118 -16.78918,-39.40536 -16.78918,-62.52844c0,-38.28676 16.99936,-73.60846 45.47665,-94.48074l4.65002,-3.42032l-4.92978,-2.8707c-13.34381,-7.78107 -20.84091,-22.53902 -23.40018,-46.78066c11.93567,15.79721 36.15231,25.70321 58.53256,25.70321c12.17795,0 53.57199,1.98871 74.90286,27.51222l2.38257,2.85725l2.38251,-2.85725c21.33081,-25.52353 62.72223,-27.51222 74.90283,-27.51222c22.38153,0 46.59692,-9.90449 58.53259,-25.70321c-2.55933,24.24165 -10.05774,38.9996 -23.39752,46.78066l-4.93115,2.8707l4.6488,3.42032c28.48248,20.87227 45.48859,56.19397 45.48859,94.48074c0,23.12308 -6.19067,44.62872 -16.78925,62.52844c-2.01453,3.39786 -4.20032,6.65494 -6.52393,9.77576z" id="svg_33"/>
    </g>
    <g id="svg_34">
     <g id="svg_35">
      <path fill="#FFFFFF" stroke="#000000" stroke-width="4.8726" d="m387.81381,535.98364c0,6.94098 -5.03156,12.58209 -11.23566,12.58209c-6.2041,0 -11.24768,-5.64417 -11.24768,-12.58209c0,-6.94098 5.04495,-12.57153 11.24768,-12.57153c6.20273,-0.00006 11.23566,5.63055 11.23566,12.57153z" id="svg_36"/>
      <path fill="#FFFFFF" stroke="#000000" stroke-width="4.8726" d="m410.29709,535.98364c0,6.94098 -5.03152,12.58209 -11.23557,12.58209c-6.21756,0 -11.24771,-5.64417 -11.24771,-12.58209c0,-6.94098 5.03149,-12.57153 11.24771,-12.57153c6.20404,-0.00006 11.23557,5.63055 11.23557,12.57153z" id="svg_37"/>
      <path fill="#FFFFFF" stroke="#000000" stroke-width="4.8726" d="m432.7804,535.98364c0,6.94098 -5.04495,12.58209 -11.24771,12.58209c-6.20404,0 -11.2356,-5.64417 -11.2356,-12.58209c0,-6.94098 5.03156,-12.57153 11.2356,-12.57153c6.20276,-0.00006 11.24771,5.63055 11.24771,12.57153z" id="svg_38"/>
     </g>
     <g id="svg_39">
      <path fill="#FFFFFF" stroke="#000000" stroke-width="4.8726" d="m508.79019,535.98364c0,6.94098 -5.04501,12.58209 -11.24631,12.58209s-11.237,-5.64417 -11.237,-12.58209c0,-6.94098 5.03281,-12.57153 11.237,-12.57153s11.24631,5.63055 11.24631,12.57153z" id="svg_40"/>
      <path fill="#FFFFFF" stroke="#000000" stroke-width="4.8726" d="m531.2627,535.98364c0,6.94098 -5.03284,12.58209 -11.23694,12.58209s-11.23694,-5.64417 -11.23694,-12.58209c0,-6.94098 5.0329,-12.57153 11.23694,-12.57153s11.23694,5.63055 11.23694,12.57153z" id="svg_41"/>
      <path fill="#FFFFFF" stroke="#000000" stroke-width="4.8726" d="m553.74603,535.98364c0,6.94098 -5.0329,12.58209 -11.23694,12.58209s-11.2464,-5.64417 -11.2464,-12.58209c0,-6.94098 5.04633,-12.57153 11.2464,-12.57153c6.20404,-0.00006 11.23694,5.63055 11.23694,12.57153z" id="svg_42"/>
     </g>
    </g>
   </g>
   <g id="svg_3"/>
  </g>
  <ellipse ry="6" id="svg_44" cy="109.71997" cx="253.10999" stroke-linecap="null" stroke-linejoin="null" fill="black"/>
 </g>
</svg>