<?xml version="1.0" encoding="utf-8"?>
<!-- Generator: Adobe Illustrator 14.0.0, SVG Export Plug-In . SVG Version: 6.00 Build 43363)  -->
<!DOCTYPE svg PUBLIC "-//W3C//DTD SVG 1.1//EN" "http://www.w3.org/Graphics/SVG/1.1/DTD/svg11.dtd" [
	<!ENTITY ns_flows "http://ns.adobe.com/Flows/1.0/">
	<!ENTITY ns_extend "http://ns.adobe.com/Extensibility/1.0/">
	<!ENTITY ns_ai "http://ns.adobe.com/AdobeIllustrator/10.0/">
	<!ENTITY ns_graphs "http://ns.adobe.com/Graphs/1.0/">
	<!ENTITY ns_vars "http://ns.adobe.com/Variables/1.0/">
	<!ENTITY ns_imrep "http://ns.adobe.com/ImageReplacement/1.0/">
	<!ENTITY ns_sfw "http://ns.adobe.com/SaveForWeb/1.0/">
	<!ENTITY ns_custom "http://ns.adobe.com/GenericCustomNamespace/1.0/">
	<!ENTITY ns_adobe_xpath "http://ns.adobe.com/XPath/1.0/">
]>

<svg width="841.89" height="595.28" xmlns="http://www.w3.org/2000/svg">
 <metadata/>
 <g>
  <title>Layer 1</title>
  <ellipse fill="#ffffff" stroke-linejoin="null" stroke-linecap="null" cx="458.11002" cy="292.71996" id="svg_43" rx="279.00003" ry="270.99999"/>
  <g id="Calque_1">
   <g id="svg_13">
    <path id="svg_14" d="m582.15369,167.52332c15.93652,-12.11336 23.40015,-35.05817 23.40015,-71.52847h-6.52258c0,22.72466 -31.43683,39.70491 -59.5379,39.70491c-15.89771,0 -54.40588,2.70753 -77.28549,27.13484c-22.87802,-24.42731 -61.3876,-27.13484 -77.28531,-27.13484c-28.10107,0 -59.53909,-16.98026 -59.53909,-39.70491h-6.52267c0,36.47029 7.46494,59.4151 23.40018,71.52847c-27.76917,22.54648 -44.19028,58.50162 -44.19028,97.32306c0,28.31781 8.758,54.32657 23.31186,74.84839v55.06189c0,86.88843 63.17062,157.56476 140.82413,157.56476c77.66022,0 140.83466,-70.67191 140.83466,-157.56476v-55.06189c14.55383,-20.52182 23.31189,-46.53058 23.31189,-74.84839c0.00275,-38.82144 -16.42236,-74.77658 -44.19952,-97.32306zm-254.24716,227.23334v-46.69528c16.2417,19.02582 37.98611,31.90887 62.28586,35.5029c2.2099,6.41083 4.06375,13.01031 5.48392,19.78806c8.33099,39.83374 1.87256,79.2796 -14.87906,110.64188c-32.07654,-27.48672 -52.89072,-70.64044 -52.89072,-119.23755zm59.69174,124.85773c18.15317,-33.50531 25.14032,-75.7829 16.22971,-118.40195c-1.198,-5.71902 -2.70117,-11.31519 -4.44525,-16.79459c1.50311,0.0704 2.96747,0.26355 4.4841,0.26355c20.85968,0 40.98038,-6.88409 58.3425,-19.93185c17.36206,13.04776 37.48828,19.93185 58.33975,19.93185c1.52466,0 2.99573,-0.19321 4.49615,-0.26355c-1.74402,5.4794 -3.24188,11.07556 -4.4386,16.79459c-8.90918,42.61905 -1.92206,84.89664 16.22437,118.40195c-21.3562,16.03229 -47.02386,25.40973 -74.62314,25.40973c-27.59103,0 -53.25323,-9.37744 -74.60959,-25.40973zm208.9259,-124.85773c0,48.5896 -20.81555,91.74481 -52.89081,119.22711c-16.75299,-31.35934 -23.20465,-70.80823 -14.87238,-110.6344c1.42157,-6.77621 3.2674,-13.38474 5.48529,-19.78809c24.29169,-3.59851 46.03882,-16.47711 62.27789,-35.50287v46.69824l0,0zm0,-57.59714c-18.2215,24.55463 -45.50195,40.22452 -75.9751,40.22452c-20.25858,0 -39.78244,-6.92599 -56.46313,-20.04562l-1.87927,-1.46756l-1.87265,1.46756c-16.67545,13.11963 -36.20325,20.04562 -56.46991,20.04562c-30.45694,0 -57.73752,-15.6684 -75.96021,-40.22452c-2.32507,-3.1358 -4.50958,-6.38538 -6.52274,-9.79071c-10.59845,-17.89374 -16.78915,-39.39792 -16.78915,-62.521c0,-38.28677 16.99933,-73.60847 45.47653,-94.48824l4.65012,-3.40532l-4.92987,-2.87819c-13.34372,-7.78105 -20.84085,-22.539 -23.40012,-46.78815c11.93561,15.8047 36.15231,25.70921 58.53253,25.70921c12.17798,0 53.57199,1.98122 74.90286,27.51971l2.3826,2.84972l2.38257,-2.84972c21.33081,-25.53851 62.72217,-27.51971 74.90277,-27.51971c22.38165,0 46.59692,-9.90451 58.53259,-25.70921c-2.5592,24.24911 -10.05768,39.0071 -23.39752,46.78815l-4.93115,2.87819l4.64874,3.40532c28.4826,20.87825 45.48853,56.20146 45.48853,94.48824c0,23.12308 -6.19055,44.62875 -16.78912,62.521c-2.01044,3.40533 -4.19623,6.65491 -6.5199,9.79071z" fill="#FFFFFF"/>
    <g id="svg_15">
     <g id="svg_16">
      <path id="svg_17" d="m584.15302,51.438h-249.23001c-2.70102,0 -4.89099,2.4514 -4.89099,5.4734s2.19098,5.4719 4.89099,5.4719h11.827v21.648l-10.185,22.7587h21.255h5.63699l-10.185,-22.8306v-21.5761h30.30499v31.3174c0,14.6783 18.44501,24.9053 35.00601,24.9053c6.45099,0 28.39398,1.054 39.69901,14.578c0.32498,0.392 0.78299,0.612 1.26099,0.612s0.93701,-0.22 1.26099,-0.612c11.30502,-13.524 33.242,-14.578 39.69302,-14.578c16.56,0 35.00397,-10.22701 35.00397,-24.9053v-31.3174h48.65002c2.70099,0 4.89099,-2.4514 4.89099,-5.4719s-2.18701,-5.4734 -4.88898,-5.4734l0,0z" fill="#1B171B"/>
     </g>
     <g id="svg_18">
      <path id="svg_19" d="m459.53754,346.87836l1.87936,1.47501c16.67538,13.11819 36.19653,20.05313 56.46317,20.05313c54.74329,0 99.28961,-50.48547 99.28961,-112.5437c0,-38.2793 -17.00342,-73.60101 -45.49133,-94.48825l-4.65814,-3.40532l4.93787,-2.87822c13.34381,-7.78105 20.83014,-22.53151 23.39349,-46.78812c-11.93433,15.80469 -36.15106,25.70919 -58.53259,25.70919c-12.18066,0 -53.56796,1.98123 -74.89746,27.51973l-2.3826,2.84973l-2.3812,-2.84973c-21.33087,-25.5385 -62.72498,-27.51973 -74.90283,-27.51973c-22.38824,0 -46.59689,-9.9045 -58.53397,-25.70919c2.55396,24.24914 10.05774,39.00707 23.3949,46.78812l4.93646,2.87822l-4.65674,3.40532c-28.47055,20.87825 -45.47662,56.20146 -45.47662,94.48825c0,62.05823 44.5343,112.5437 99.27753,112.5437c20.26797,0 39.78918,-6.93494 56.46457,-20.05313l1.87653,-1.47501l0,0l0,0z" fill="#030303"/>
     </g>
     <path id="svg_20" d="m576.49567,237.64864c0,27.71883 -20.08856,50.19347 -44.86487,50.19347c-24.7789,0 -44.85947,-22.47464 -44.85947,-50.19347c0,-27.7204 20.08057,-50.18002 44.85947,-50.18002c24.77618,0 44.86487,22.45964 44.86487,50.18002z" fill="#FFFFFF"/>
     <path id="svg_21" d="m559.05865,237.64864c0,16.94429 -12.28235,30.68239 -27.43182,30.68239c-15.13477,0 -27.41318,-13.7381 -27.41318,-30.68239c0,-16.93086 12.27982,-30.66899 27.41318,-30.66899c15.14948,-0.0015 27.43182,13.73814 27.43182,30.66899z"/>
     <g id="svg_22">
      <path id="svg_23" d="m432.30249,237.64864c0,27.71883 -20.08859,50.19347 -44.86621,50.19347c-24.77612,0 -44.85806,-22.47464 -44.85806,-50.19347c0,-27.7204 20.08194,-50.18002 44.85806,-50.18002c24.77762,0 44.86621,22.45964 44.86621,50.18002z" fill="#FFFFFF"/>
      <path id="svg_24" d="m414.86948,237.64864c0,16.<?xml version="1.0" encoding="utf-8"?>
<!-- Generator: Adobe Illustrator 14.0.0, SVG Export Plug-In . SVG Version: 6.00 Build 43363)  -->
<!DOCTYPE svg PUBLIC "-//W3C//DTD SVG 1.1//EN" "http://www.w3.org/Graphics/SVG/1.1/DTD/svg11.dtd" [
	<!ENTITY ns_flows "http://ns.adobe.com/Flows/1.0/">
	<!ENTITY ns_extend "http://ns.adobe.com/Extensibility/1.0/">
	<!ENTITY ns_ai "http://ns.adobe.com/AdobeIllustrator/10.0/">
	<!ENTITY ns_graphs "http://ns.adobe.com/Graphs/1.0/">
	<!ENTITY ns_vars "http://ns.adobe.com/Variables/1.0/">
	<!ENTITY ns_imrep "http://ns.adobe.com/ImageReplacement/1.0/">
	<!ENTITY ns_sfw "http://ns.adobe.com/SaveForWeb/1.0/">
	<!ENTITY ns_custom "http://ns.adobe.com/GenericCustomNamespace/1.0/">
	<!ENTITY ns_adobe_xpath "http://ns.adobe.com/XPath/1.0/">
]> -12.27963,30.68239 -27.42645,30.68239c-15.13345,0 -27.41312,-13.7381 -27.41312,-30.68239c0,-16.93086 12.27966,-30.66899 27.41312,-30.66899c15.14682,-0.0015 27.42645,13.73814 27.42645,30.66899z"/>
     </g>
     <g id="svg_25">
      <path id="svg_26" d="m459.53799,384.12601c0,-56.70801 36.418,-60.255 71.62802,-60.255c-19.14703,0 -36.39301,-9.13699 -48.44202,-23.715c-11.53699,-14.62201 -12.129,-23.68402 -23.186,-23.68402c-11.05099,0 -11.64301,9.06403 -23.177,23.68402c-12.05099,14.57999 -29.29898,23.715 -48.444,23.715c35.207,0 71.62701,3.547 71.621,60.255l0,0z" fill="#FFFFFF"/>
      <path id="svg_27" d="m462.798,384.12601h-6.522c0.00601,-24.121 -6.82199,-39.87601 -20.86499,-48.17001c-13.19202,-7.78198 -31.43301,-8.43698 -47.49503,-8.43698v-7.298c17.42603,0 34.20801,-8.215 46.04901,-22.54602c3.47101,-4.40298 5.91101,-8.28 8.05002,-11.69998c4.80298,-7.63901 8.26797,-13.15399 17.521,-13.15399c9.25998,0 12.73199,5.52197 17.52798,13.16098c2.147,3.42001 4.57901,7.298 8.10199,11.759c11.79001,14.26501 28.57901,22.48199 46.00003,22.48199v7.297c-36.03003,-0.00098 -68.36801,4.33102 -68.36801,56.60602l0,0l0,0zm-48.564,-62.45102c8.64899,1.254 17.01801,3.578 24.22198,7.83102c10.31702,6.09198 17.29199,15.44199 21.05099,28.28198c6.98001,-24.39798 24.561,-33.10001 45.39301,-36.086c-9.24799,-4.24701 -17.668,-10.71701 -24.57098,-19.06799c-3.81601,-4.83099 -6.465,-9.064 -8.60001,-12.45599c-4.46399,-7.11102 -6.31799,-10.06201 -12.19101,-10.06201c-5.599,0 -7.38199,2.41602 -12.185,10.06201c-2.12698,3.392 -4.789,7.625 -8.548,12.392c-6.91599,8.37399 -15.33701,14.85098 -24.57098,19.10498l0,0l0,0l0,0z"/>
     </g>
    </g>
    <g id="svg_28">
     <path id="svg_29" d="m593.84711,385.77161v-46.69528c-0.62506,0.74127 -1.33862,1.38968 -1.97974,2.10999c-0.99316,1.10367 -2.01306,2.17285 -3.04504,3.23462c-1.40686,1.44656 -2.82843,2.8782 -4.30615,4.23944c-0.99854,0.92694 -2.04388,1.80301 -3.07721,2.68652c-1.6156,1.3822 -3.22858,2.75842 -4.9151,4.04025c-0.85809,0.64844 -1.74945,1.23996 -2.62488,1.85992c-1.95026,1.38968 -3.89777,2.77194 -5.92706,4.01935c-0.22217,0.13477 -0.4577,0.24258 -0.67456,0.37732c-10.81531,6.52615 -22.73627,10.94681 -35.36133,12.86212c-0.11511,0.02396 -0.23022,0.05695 -0.34534,0.07339c-2.1778,6.43475 -4.08923,13.01031 -5.50806,19.78806c-8.33771,39.8262 -1.87659,79.27509 14.87244,110.63437c32.07648,-27.4852 52.89203,-70.63892 52.89203,-119.23007z" fill="#030303"/>
     <path id="svg_30" d="m392.99799,394.366c-1.41397,-6.776 -3.32498,-13.353 -5.51599,-19.78799c-0.07599,-0.017 -0.159,-0.035 -0.242,-0.04999c-12.892,-1.94501 -25.04398,-6.47601 -36.03799,-13.203c-0.00598,-0.00803 -0.013,-0.00803 -0.02499,-0.01501c-2.16602,-1.32501 -4.242,-2.793 -6.31799,-4.289c-0.73901,-0.52899 -1.491,-1.01999 -2.21701,-1.56799c-1.79599,-1.36099 -3.51498,-2.823 -5.23499,-4.30402c-0.918,-0.78299 -1.84003,-1.56 -2.73801,-2.38699c-1.56601,-1.44598 -3.08301,-2.96298 -4.57901,-4.51801c-0.936,-0.961 -1.854,-1.93198 -2.758,-2.92899c-0.68799,-0.76199 -1.44,-1.45401 -2.10101,-2.237v46.69501c0,48.59698 20.81403,91.75098 52.89001,119.23499c16.75,-31.36099 23.20801,-70.81 14.87698,-110.642l0,0z" fill="#030303"/>
     <path id="svg_31" d="m517.92963,392.22736c1.19263,-5.71896 2.76001,-11.29419 4.4787,-16.78705c-1.50848,0.07935 -2.99023,0.26505 -4.52289,0.26505c-2.45758,0 -4.90442,-0.11383 -7.34848,-0.31445c-0.89145,-0.06293 -1.7829,-0.20071 -2.6745,-0.29056c-1.46692,-0.15723 -2.91785,-0.32199 -4.37155,-0.54959c-1.28632,-0.19165 -2.55258,-0.45673 -3.82547,-0.70526c-0.99994,-0.19919 -2.00647,-0.40134 -3.00632,-0.6275c-1.50995,-0.35486 -3.0051,-0.75476 -4.5029,-1.17554c-0.6987,-0.20667 -1.40146,-0.4118 -2.10147,-0.62747c-1.68124,-0.51959 -3.34897,-1.08417 -4.99805,-1.69513c-0.43912,-0.17075 -0.88608,-0.34299 -1.33185,-0.52261c-1.84726,-0.71286 -3.68103,-1.47357 -5.49066,-2.30914c-0.10175,-0.0405 -0.20352,-0.09286 -0.2998,-0.14227c-4.12271,-1.90936 -8.1611,-4.07623 -12.05887,-6.5831c-2.06403,6.90204 -3.06918,14.78342 -3.06918,23.96317h-6.52271c0,-9.19327 -1.01328,-17.0791 -3.07593,-23.97214c-3.80286,2.4454 -7.7327,4.55246 -11.73889,6.43631c-0.24231,0.11227 -0.48318,0.23215 -0.72549,0.34595c-1.72006,0.79068 -3.4642,1.50348 -5.20959,2.18784c-0.54211,0.21564 -1.0762,0.42828 -1.61691,0.62747c-1.58087,0.58701 -3.17236,1.12613 -4.77725,1.62476c-0.77625,0.24265 -1.55399,0.47021 -2.33035,0.69189c-1.44019,0.40579 -2.87253,0.79068 -4.3194,1.12613c-1.0629,0.24857 -2.12692,0.45673 -3.19772,0.66937c-1.22342,0.24109 -2.43884,0.49115 -3.66898,0.68283c-1.50317,0.23514 -3.01172,0.40137 -4.52164,0.56308c-0.85394,0.08835 -1.69455,0.21707 -2.54718,0.28006c-2.44543,0.20056 -4.89093,0.31442 -7.34979,0.31442c-1.52863,0 -3.01843,-0.18567 -4.53497,-0.26505c1.72672,5.49283 3.28745,11.06805 4.48407,16.78705c8.9173,42.61908 1.9234,84.90274 -16.22961,118.40945c21.35614,16.02478 47.01715,25.40222 74.60965,25.40222c27.59778,0 53.26007,-9.37744 74.62299,-25.40973c-18.14783,-33.50375 -25.1362,-75.7814 -16.22699,-118.40045l0,0z" fill="#F2E8D9"/>
    </g>
    <g id="svg_32">
     <path id="svg_33" d="m579.47656,158.54575c15.93658,-12.12082 23.40021,-35.07314 23.40021,-71.53594h-6.52264c0,22.72468 -31.43677,39.70493 -59.53784,39.70493c-15.89777,0 -54.40582,2.7075 -77.28537,27.14233c-22.8782,-24.42734 -61.3877,-27.14233 -77.2854,-27.14233c-28.1011,0 -59.53922,-16.98024 -59.53922,-39.70493h-6.52264c0,36.47028 7.465,59.4226 23.40021,71.53594c-27.76913,22.53149 -44.19031,58.49568 -44.19031,97.31555c0,28.31039 8.758,54.31912 23.31192,74.85596v55.05435c0,86.8884 63.17059,157.56476 140.8241,157.56476c77.66013,0 140.83481,-70.67188 140.83481,-157.56476v-55.05435c14.55377,-20.53683 23.31177,-46.54556 23.31177,-74.85596c0.00275,-38.8214 -16.4223,-74.78406 -44.19958,-97.31555zm-254.2471,227.22586v-46.69528c16.24173,19.02585 37.98615,31.91641 62.28583,35.50735c2.20987,6.41086 4.06384,13.01041 5.48398,19.78064c8.33096,39.83374 1.87259,79.27954 -14.87912,110.64935c-32.07651,-27.49124 -52.89069,-70.64493 -52.89069,-119.24207zm268.61765,0c0,48.59714 -20.81555,91.75082 -52.89075,119.22708c-16.75299,-31.35483 -23.20477,-70.80063 -14.87238,-110.63437c1.42145,-6.77026 3.26733,-13.3848 5.48529,-19.78064c24.29163,-3.60596 46.03876,-16.49051 62.27783,-35.50735v46.69528l0,0zm0,-57.60464c-18.2215,24.56961 -45.50214,40.23203 -75.97504,40.23203c-17.50262,0 -34.45645,-5.19629 -49.50012,-15.06491c-0.96115,2.09503 -1.78964,4.38174 -2.51523,6.81967c15.85361,10.19803 33.64935,15.54114 52.01535,15.54114c1.52454,0 2.99567,-0.18573 4.49609,-0.25607c-1.74414,5.4718 -3.24188,11.07556 -4.43854,16.78702c-8.90921,42.62808 -1.92206,84.89679 16.22437,118.40198c-21.35626,16.03229 -47.02386,25.40973 -74.62308,25.40973c-27.59247,0 -53.25345,-9.37744 -74.60971,-25.40973c18.15323,-33.50519 25.14029,-75.77689 16.22974,-118.40198c-1.19797,-5.71149 -2.7012,-11.31522 -4.44522,-16.78702c1.50314,0.07034 2.96741,0.25607 4.48401,0.25607c18.39539,0 36.20316,-5.35663 52.06345,-15.56815c-0.71341,-2.42142 -1.57278,-4.66772 -2.54718,-6.79117c-15.04376,9.86856 -31.99893,15.06494 -49.51492,15.06494c-30.45694,0 -57.73752,-15.66098 -75.96021,-40.23355c-2.32501,-3.12082 -4.50955,-6.37042 -6.52277,-9.77576c-10.59845,-17.90118 -16.78918,-39.40536 -16.78918,-62.52844c0,-38.28676 16.99936,-73.60846 45.47665,-94.48074l4.65002,-3.42032l-4.92978,-2.8707c-13.34381,-7.78107 -20.84091,-22.53902 -23.40018,-46.78066c11.93567,15.79721 36.15231,25.70321 58.53256,25.70321c12.17795,0 53.57199,1.98871 74.90286,27.51222l2.38257,2.85725l2.38251,-2.85725c21.33081,-25.52353 62.72223,-27.51222 74.90283,-27.51222c22.38153,0 46.59692,-9.90449 58.53259,-25.70321c-2.55933,24.24165 -10.05774,38.9996 -23.39752,46.78066l-4.93115,2.8707l4.6488,3.42032c28.48248,20.87227 45.48859,56.19397 45.48859,94.48074c0,23.12308 -6.19067,44.62872 -16.78925,62.52844c-2.01453,3.39786 -4.20032,6.65494 -6.52393,9.77576z" fill="#FFFFFF"/>
    </g>
    <g id="svg_34">
     <g id="svg_35">
      <path id="svg_36" d="m387.81381,535.98364c0,6.94098 -5.03156,12.58209 -11.23566,12.58209c-6.2041,0 -11.24768,-5.64417 -11.24768,-12.58209c0,-6.94098 5.04495,-12.57153 11.24768,-12.57153c6.20273,-0.00006 11.23566,5.63055 11.23566,12.57153z" stroke-width="4.8726" stroke="#000000" fill="#FFFFFF"/>
      <path id="svg_37" d="m410.29709,535.98364c0,6.94098 -5.03152,12.58209 -11.23557,12.58209c-6.21756,0 -11.24771,-5.64417 -11.24771,-12.58209c0,-6.94098 5.03149,-12.57153 11.24771,-12.57153c6.20404,-0.00006 11.23557,5.63055 11.23557,12.57153z" stroke-width="4.8726" stroke="#000000" fill="#FFFFFF"/>
      <path id="svg_38" d="m432.7804,535.98364c0,6.94098 -5.04495,12.58209 -11.24771,12.58209c-6.20404,0 -11.2356,-5.64417 -11.2356,-12.58209c0,-6.94098 5.03156,-12.57153 11.2356,-12.57153c6.20276,-0.00006 11.24771,5.63055 11.24771,12.57153z" stroke-width="4.8726" stroke="#000000" fill="#FFFFFF"/>
     </g>
     <g id="svg_39">
      <path id="svg_40" d="m508.79019,535.98364c0,6.94098 -5.04501,12.58209 -11.24631,12.58209s-11.237,-5.64417 -11.237,-12.58209c0,-6.94098 5.03281,-12.57153 11.237,-12.57153s11.24631,5.63055 11.24631,12.57153z" stroke-width="4.8726" stroke="#000000" fill="#FFFFFF"/>
      <path id="svg_41" d="m531.2627,535.98364c0,6.94098 -5.03284,12.58209 -11.23694,12.58209s-11.23694,-5.64417 -11.23694,-12.58209c0,-6.94098 5.0329,-12.57153 11.23694,-12.57153s11.23694,5.63055 11.23694,12.57153z" stroke-width="4.8726" stroke="#000000" fill="#FFFFFF"/>
      <path id="svg_42" d="m553.74603,535.98364c0,6.94098 -5.0329,12.58209 -11.23694,12.58209s-11.2464,-5.64417 -11.2464,-12.58209c0,-6.94098 5.04633,-12.57153 11.2464,-12.57153c6.20404,-0.00006 11.23694,5.63055 11.23694,12.57153z" stroke-width="4.8726" stroke="#000000" fill="#FFFFFF"/>
     </g>
    </g>
   </g>
   <g id="svg_3"/>
  </g>
  <ellipse fill="black" stroke-linejoin="null" stroke-linecap="null" cx="253.10999" cy="109.71997" id="svg_44" ry="6"/>
 </g>
</svg>