<?xml version="1.0" encoding="utf-8"?>
<!-- Generator: Adobe Illustrator 14.0.0, SVG Export Plug-In . SVG Version: 6.00 Build 43363)  -->
<!DOCTYPE svg PUBLIC "-//W3C//DTD SVG 1.1//EN" "http://www.w3.org/Graphics/SVG/1.1/DTD/svg11.dtd" [
	<!ENTITY ns_flows "http://ns.adobe.com/Flows/1.0/">
	<!ENTITY ns_extend "http://ns.adobe.com/Extensibility/1.0/">
	<!ENTITY ns_ai "http://ns.adobe.com/AdobeIllustrator/10.0/">
	<!ENTITY ns_graphs "http://ns.adobe.com/Graphs/1.0/">
	<!ENTITY ns_vars "http://ns.adobe.com/Variables/1.0/">
	<!ENTITY ns_imrep "http://ns.adobe.com/ImageReplacement/1.0/">
	<!ENTITY ns_sfw "http://ns.adobe.com/SaveForWeb/1.0/">
	<!ENTITY ns_custom "http://ns.adobe.com/GenericCustomNamespace/1.0/">
	<!ENTITY ns_adobe_xpath "http://ns.adobe.com/XPath/1.0/">
]>
<svg id="logo_svg" width="841.89" height="595.28" xmlns="http://www.w3.org/2000/svg">
 <metadata/>
 <g>
  <title>Logo</title>
  <ellipse id="round" fill="#B5E1F5" sfillh="#ffd4aa" stroke="#000000" stroke-width="5" cx="430.10999" cy="288.21999" rx="275" ry="268.50002"/>
  <g id="upper_logo">
     <path id="hat" d="m592.60864,98.438h-328.5011c-3.5603,0 -6.44662,3.03699 -6.44662,6.78087s2.88809,6.77905 6.44662,6.77905h15.58905v26.81927l-13.42432,28.19586h28.0148h7.42932l-13.42426,-28.28491v-26.73022h39.94464v38.79852c0,18.18501 24.31161,30.85443 46.1391,30.85443c8.50388,0 37.42532,1.30612 52.32645,18.0607c0.42865,0.48608 1.03204,0.75882 1.66187,0.75882s1.23505,-0.27274 1.66205,-0.75882c14.90094,-16.75458 43.81549,-18.0607 52.3175,-18.0607c21.82751,0 46.13733,-12.66939 46.13733,-30.85443v-38.79852h64.12396c3.56061,0 6.44672,-3.03705 6.44672,-6.77905s-2.88281,-6.78087 -6.44312,-6.78087z" fill="#1B171B"/>
     <path id="head_background" fill="#A6743C" d="m428.35718,464.45367l2.47705,1.82739c21.97925,16.25189 47.70935,24.84351 74.422,24.84351c72.15497,0 130.86975,-62.54553 130.86975,-139.42834c0,-47.42352 -22.41144,-91.18298 -59.96027,-117.05984l-6.13959,-4.21878l6.5083,-3.56569c17.58789,-9.63982 27.45544,-27.91391 30.83405,-57.96503c-15.7301,19.58014 -47.64929,31.85071 -77.14966,31.85071c-16.05475,0 -70.60583,2.45448 -98.71948,34.09366l-3.14038,3.53047l-3.13855,-3.53047c-28.11542,-31.63918 -82.67535,-34.09366 -98.72665,-34.09366c-29.50909,0 -61.41757,-12.27057 -77.15132,-31.85071c3.36621,30.04181 13.25664,48.32518 30.83586,57.96503l6.50656,3.56569l-6.13776,4.21878c-37.52602,25.86569 -59.94109,69.62698 -59.94109,117.05984c0,76.88281 58.69905,139.42834 130.8539,139.42834c26.71448,0 52.44464,-8.59161 74.42383,-24.84351l2.47345,-1.82739l0,0l0,0z" />
     <g id="lefteye">
        <path id="lefteyeexternalcircle" d="m582.51526,329.13095c0,34.34039 -26.47809,62.18384 -59.13464,62.18384c-32.6601,0 -59.12769,-27.84344 -59.12769,-62.18384c0,-34.34229 26.46759,-62.16708 59.12769,-62.16708c32.65656,0 59.13464,27.8248 59.13464,62.16708z" fill="#FFFFFF"/>
        <path id="lefteyeinternalcircle" d="m559.5321,329.13095c0,20.99203 -16.18878,38.0119 -36.1568,38.0119c-19.94849,0 -36.13214,-17.01987 -36.13214,-38.0119c0,-20.97522 16.18536,-37.99521 36.13214,-37.99521c19.96802,-0.00183 36.1568,17.01999 36.1568,37.99521z"/>
     </g>
     <g id="righteye">
      <path id="righteyeexternalcircle" d="m392.45972,329.13095c0,34.34039 -26.47815,62.18384 -59.13651,62.18384c-32.65652,0 -59.12579,-27.84344 -59.12579,-62.18384c0,-34.34229 26.46927,-62.16708 59.12579,-62.16708c32.65836,0 59.13651,27.8248 59.13651,62.16708z" fill="#FFFFFF"/>
      <path id="righteyeinternalcircle" d="m369.48187,329.13095c0,20.99203 -16.18542,38.0119 -36.14981,38.0119c-19.94678,0 -36.1322,-17.01987 -36.1322,-38.0119c0,-20.97522 16.18542,-37.99521 36.1322,-37.99521c19.96442,-0.00183 36.14981,17.01999 36.14981,37.99521z"/>
      </g>
     <g id="nose">
      <path id="nosewhite" d="m428.35718,510.599c0,-70.25403 48.00214,-74.64914 94.41113,-74.64914c-25.23773,0 -47.96863,-11.31876 -63.85052,-29.37946c-15.20618,-18.11456 -15.98602,-29.34241 -30.56061,-29.34241c-14.5658,0 -15.34558,11.22971 -30.54828,29.34241c-15.88361,18.06256 -38.61804,29.37946 -63.85226,29.37946c46.40549,0 94.40939,4.39511 94.40054,74.64914z" fill="#FFFFFF"/>
      <path id="noseblackshape" d="m432.65497,510.599h-8.59729c0.00879,-29.88226 -8.99066,-49.40118 -27.5014,-59.67737c-17.38684,-9.63983 -41.43024,-10.45236 -62.60141,-10.45236v-9.04062c22.96896,0 45.08932,-10.17783 60.69601,-27.93237c4.57471,-5.45438 7.79102,-10.25766 10.61029,-14.49496c6.3302,-9.46353 10.89789,-16.29645 23.09424,-16.29645c12.20526,0 16.7818,6.84216 23.10309,16.30569c2.82996,4.23737 6.03558,9.04059 10.67914,14.56732c15.53961,17.67294 37.66876,27.85266 60.63068,27.85266v9.04059c-47.49048,-0.00186 -90.11334,5.36526 -90.11334,70.12787l0,0l0,0zm-64.01111,-77.36893c11.4007,1.55286 22.43085,4.43222 31.92615,9.70105c13.599,7.54709 22.79254,19.13126 27.74664,35.03793c9.20068,-30.22546 32.37256,-41.00616 59.83154,-44.70557c-12.18933,-5.26144 -23.28839,-13.27789 -32.3866,-23.62271c-5.02997,-5.98499 -8.52148,-11.2298 -11.33545,-15.43185c-5.88379,-8.81046 -8.32733,-12.4653 -16.06897,-12.4653c-7.37988,0 -9.72986,2.99255 -16.06012,12.4653c-2.80334,4.20206 -6.31256,9.44687 -11.26654,15.35208c-9.11603,10.37448 -20.21503,18.39838 -32.38666,23.66907l0,0l0,0l0,0l0,0l0,0l0,0l0,0l0,0l0,0l0,0l0,0l0,0z"/>
     </g>    
  </g>
 </g>
</svg>