<?xml version="1.0" encoding="utf-8"?>
<!-- Generator: Adobe Illustrator 14.0.0, SVG Export Plug-In . SVG Version: 6.00 Build 43363)  -->
<!DOCTYPE svg PUBLIC "-//W3C//DTD SVG 1.1//EN" "http://www.w3.org/Graphics/SVG/1.1/DTD/svg11.dtd" [
	<!ENTITY ns_flows "http://ns.adobe.com/Flows/1.0/">
	<!ENTITY ns_extend "http://ns.adobe.com/Extensibility/1.0/">
	<!ENTITY ns_ai "http://ns.adobe.com/AdobeIllustrator/10.0/">
	<!ENTITY ns_graphs "http://ns.adobe.com/Graphs/1.0/">
	<!ENTITY ns_vars "http://ns.adobe.com/Variables/1.0/">
	<!ENTITY ns_imrep "http://ns.adobe.com/ImageReplacement/1.0/">
	<!ENTITY ns_sfw "http://ns.adobe.com/SaveForWeb/1.0/">
	<!ENTITY ns_custom "http://ns.adobe.com/GenericCustomNamespace/1.0/">
	<!ENTITY ns_adobe_xpath "http://ns.adobe.com/XPath/1.0/">
]>
<svg width="841.89" height="595.28" xmlns="http://www.w3.org/2000/svg">
 <metadata/>
 <g>
  <title>Layer 1</title>
  <g id="Calque_1">
   <g id="svg_3"/>
   <g id="svg_13">
    <g id="svg_15">
     <g id="svg_16">
      <path fill="#1B171B" d="m678.40594,32.438h-496.10376c-5.37679,0 -9.7357,3.91385 -9.7357,8.73866s4.3616,8.73631 9.7357,8.73631h23.54265v34.5626l-20.27344,36.33665h42.30806h11.21977l-20.27338,-36.45142v-34.44783h60.32466v50.00053c0,23.4354 36.71548,39.76278 69.67947,39.76278c12.8425,0 56.5199,1.68321 79.02356,23.27524c0.64737,0.6264 1.55859,0.97789 2.50977,0.97789s1.86511,-0.35149 2.50998,-0.97789c22.50348,-21.59203 66.17038,-23.27524 79.01013,-23.27524c32.96399,0 69.67682,-16.32733 69.67682,-39.76278v-50.00053h96.84027c5.3772,0 9.73578,-3.91391 9.73578,-8.73631s-4.35358,-8.73866 -9.73035,-8.73866z" id="svg_17"/>
     </g>
     <g id="svg_18">
      <path fill="#030303" d="m430.35269,504.13049l3.74088,2.35504c33.19308,20.94415 72.05078,32.01636 112.3924,32.01636c108.96875,0 197.64001,-80.60382 197.64001,-179.68442c0,-61.11572 -33.84583,-117.50954 -90.55225,-150.85759l-9.27203,-5.43683l9.82886,-4.59523c26.56134,-12.42307 41.46338,-35.97327 46.56567,-74.70081c-23.75562,25.23335 -71.96014,41.04671 -116.51166,41.04671c-24.24597,0 -106.62927,3.16312 -149.08658,43.93726l-4.74261,4.54979l-4.73993,-4.54979c-42.45993,-40.77414 -124.85663,-43.93726 -149.09735,-43.93726c-44.56477,0 -92.7531,-15.81335 -116.51427,-41.04671c5.08369,38.71556 20.02026,62.27774 46.56845,74.70081l9.82625,4.59523l-9.2693,5.43683c-56.67189,33.33368 -90.52324,89.72981 -90.52324,150.85759c0,99.0806 88.64751,179.68442 197.61609,179.68442c40.34433,0 79.20209,-11.0722 112.39517,-32.01636l3.73544,-2.35504l0,0l0,0z" id="svg_19"/>
     </g>
     <path fill="#FFFFFF" d="m663.16284,329.73712c0,44.25522 -39.9873,80.13766 -89.30536,80.13766c-49.32343,0 -89.29483,-35.88245 -89.29483,-80.13766c0,-44.25766 39.97141,-80.11609 89.29483,-80.11609c49.31805,0 89.30536,35.85843 89.30536,80.11609z" id="svg_20"/>
     <path d="m628.45355,329.73712c0,27.05289 -24.44836,48.98679 -54.60406,48.98679c-30.12634,0 -54.56696,-21.9339 -54.56696,-48.98679c0,-27.03125 24.44324,-48.96527 54.56696,-48.96527c30.1557,-0.00235 54.60406,21.93402 54.60406,48.96527z" id="svg_21"/>
     <g id="svg_22">
      <path fill="#FFFFFF" d="m376.14014,329.73712c0,44.25522 -39.98737,80.13766 -89.30817,80.13766c-49.31798,0 -89.29202,-35.88245 -89.29202,-80.13766c0,-44.25766 39.97404,-80.11609 89.29202,-80.11609c49.3208,0 89.30817,35.85843 89.30817,80.11609z" id="svg_23"/>
      <path d="m341.43893,329.73712c0,27.05289 -24.44327,48.98679 -54.59357,48.98679c-30.12375,0 -54.56702,-21.9339 -54.56702,-48.98679c0,-27.03125 24.44327,-48.96527 54.56702,-48.96527c30.15033,-0.00235 54.59357,21.93402 54.59357,48.96527z" id="svg_24"/>
     </g>
     <g id="svg_25">
      <path fill="#FFFFFF" d="m430.35269,563.599c0,-90.53793 72.49304,-96.202 142.58011,-96.202c-38.11414,0 -72.44241,-14.58673 -96.42737,-37.86197c-22.96442,-23.34464 -24.14218,-37.81418 -46.15274,-37.81418c-21.99738,0 -23.17499,14.47195 -46.13412,37.81418c-23.98755,23.27762 -58.32117,37.86197 -96.42999,37.86197c70.08176,0 142.57742,5.66406 142.56412,96.202z" id="svg_26"/>
      <path d="m436.84317,563.599h-12.98358c0.01324,-38.50995 -13.57782,-63.66443 -41.53275,-76.90756c-26.25769,-12.42303 -62.56815,-13.47018 -94.54095,-13.47018v-11.65082c34.68784,0 68.09412,-13.11639 91.66342,-35.99707c6.90875,-7.02921 11.76599,-13.21927 16.02368,-18.67999c9.55991,-12.19586 16.45804,-21.00159 34.87701,-21.00159c18.43243,0 25.3439,8.81766 34.89038,21.01352c4.27374,5.46075 9.11493,11.65079 16.12769,18.77319c23.46799,22.77554 56.88754,35.89435 91.56473,35.89435v11.65082c-71.72043,-0.00241 -136.08963,6.91434 -136.08963,90.37534l0,0l0,0zm-96.6698,-99.70703c17.21735,2.00119 33.87518,5.71188 48.21497,12.50195c20.53726,9.72607 34.42145,24.65485 41.90311,45.15417c13.89493,-38.95224 48.88916,-52.84558 90.35791,-57.61307c-18.40842,-6.78055 -35.1702,-17.11154 -48.9104,-30.44312c-7.59628,-7.71298 -12.8692,-14.47205 -17.11887,-19.88736c-8.88574,-11.35425 -12.57599,-16.06433 -24.2674,-16.06433c-11.14517,0 -14.69409,3.85657 -24.25409,16.06433c-4.23364,5.41531 -9.53323,12.17438 -17.0148,19.78455c-13.767,13.36981 -30.52875,23.71039 -48.91043,30.50287l0,0l0,0l0,0l0,0l0,0l0,0l0,0l0,0l0,0l0,0l0,0l0,0z" id="svg_27"/>
     </g>
    </g>
    <g id="svg_28"/>
    <g id="svg_32"/>
    <g id="svg_34">
     <g id="svg_35"/>
     <g id="svg_39"/>
    </g>
   </g>
  </g>
 </g>
</svg>